<svg xmlns="http://www.w3.org/2000/svg" id="SvgjsSvg561613" width="4096" height="2037.8405722039233" version="1.1" xmlns:xlink="http://www.w3.org/1999/xlink" xmlns:svgjs="http://svgjs.com/svgjs"><defs id="SvgjsDefs561614"></defs><g id="SvgjsG561615" transform="translate(328, 328) scale(34.4)" opacity="1"><defs id="SvgjsDefs165087"></defs><g id="SvgjsG165088" transform="scale(0.1414827391058291)" opacity="1"><g id="SvgjsG165089" class="SKyECvE-b" transform="translate(247.37989703588963, 0) scale(2.1203923890330816)" light-content="false" non-strokable="false" fill="#1071cb"><path d="M82.107 31.929c-2.094 0-5.1-.792-7.539-4.568-1.906-2.959-2.469-5.666-1.662-8.042 1.248-3.694 5.344-5.168 6.884-5.724 4.089-1.466 8.468.098 10.932 3.775 1.69 2.524 2.158 5.512 1.218 7.796-1.34 3.253-5.479 6.763-9.833 6.763zm.878-14.737c-.577 0-1.178.111-1.782.328-1.022.369-3.743 1.348-4.346 3.135-.379 1.113.032 2.608 1.218 4.445 1.136 1.765 2.494 2.659 4.032 2.659 2.635.001 5.258-2.434 5.975-4.179.403-.982.073-2.545-.826-3.888-.504-.752-1.927-2.5-4.271-2.5zM42.468 51.807c-.001 0-.001 0 0 0-2.907-.002-5.252-1.319-6.606-3.713-2.32-4.103-1.585-7.133-.562-8.953 1.938-3.445 6.03-4.802 8.309-4.874l.252-.004c1.562 0 6.814.562 8.801 7.786.484 1.768.034 3.679-1.265 5.384-1.964 2.575-5.635 4.374-8.929 4.374zm1.393-13.374c-1.512.046-3.955 1.025-4.926 2.751-.724 1.287-.537 2.921.558 4.856.607 1.072 1.58 1.595 2.975 1.595h.001c2.012 0 4.425-1.174 5.612-2.732.349-.457.729-1.131.559-1.75-1.13-4.106-3.479-4.72-4.779-4.72zm44.832 61.341a2.088 2.088 0 0 1-2.049-1.705L83.61 81.76c-4.179.31-14.406 1.079-20.324 1.684-6.228.63-10.83-1.794-13.698-7.228-1.246-2.354-3.463-9.282-5.256-15.052l-.137-.436c-.566-1.822-.161-3.668 1.143-5.197 2.051-2.409 6.08-3.651 8.562-3.293 2.675.383 4.369 2.632 5.728 4.439.427.566.867 1.153 1.228 1.516 1.82.285 8.867-1.556 11.567-2.257 1.413-.366 2.597-.672 3.327-.824 2.411-.503 4.704.584 5.711 2.702 1.01 2.128.378 4.541-1.605 6.146-2.156 1.747-8.202 3.305-16.613 5.107-.998.216-1.735.37-2.061.458-4.996 1.334-7.69-2.633-8.837-4.327l-.27-.396a2.087 2.087 0 0 1 3.408-2.405l.315.463c1.439 2.126 2.507 3.115 4.308 2.635.358-.096 1.169-.271 2.26-.505 3.227-.692 13.042-2.796 14.862-4.272.269-.216.685-.647.465-1.116-.135-.277-.493-.533-1.092-.407-.688.143-1.801.434-3.13.777-9.164 2.385-13.292 3.129-15.131 1.57-.744-.629-1.377-1.468-2.047-2.358-.896-1.193-2.015-2.678-2.983-2.816-1.118-.156-3.69.566-4.797 1.868-.466.548-.437.927-.334 1.252l.136.44c.924 2.973 3.737 12.023 4.96 14.341 1.291 2.447 3.694 5.612 9.588 5.025 7.592-.777 22.161-1.82 22.308-1.83 1.045-.056 2.004.657 2.199 1.698l3.375 18.143a2.085 2.085 0 0 1-2.052 2.469z"></path><path d="M93.002 98.564c-2.899 0-6.28-1.863-7.622-7.311a2.085 2.085 0 1 1 4.048-.998c.723 2.928 2.177 4.423 4.014 4.102 1.226-.216 2.45-1.296 2.315-2.556-.495-4.613-2.933-14.359-4.124-17.624-.067-.173-.749-1.723-3.122-1.542-3.513.255-8.866.741-13.369 1.153-3.415.312-6.346.578-7.637.668-4.293.325-6.713-4.062-7.468-6.685a2.086 2.086 0 0 1 4.006-1.164c.238.808 1.434 3.745 3.173 3.688 1.276-.088 4.17-.353 7.547-.662 4.529-.411 9.913-.901 13.447-1.158 4.457-.298 6.71 2.535 7.343 4.274 1.257 3.45 3.811 13.575 4.351 18.607.352 3.301-2.222 6.488-5.741 7.107a6.389 6.389 0 0 1-1.161.101z"></path><path d="M85.016 77.482L52.534 82.26c-1.175-7.488-5.655-30.167-17.202-33.387a2.086 2.086 0 0 0-1.12 4.017c8.647 2.413 13.256 23.036 14.417 31.472l-5 12.553a2.086 2.086 0 1 0 3.876 1.544l4.756-11.942 33.361-4.908a2.085 2.085 0 1 0-.606-4.127z"></path><path d="M66.021 6.417c.062-.69-.184-1.378-.69-1.934C63.187 2.137 52.563 0 43.043 0c-5.81 0-11.035.725-15.531 2.155C9.478 7.894.568 26.474.198 27.262a2.086 2.086 0 0 0 2.532 2.871 2980.418 2980.418 0 0 0 24.522-8.057c-.888 13.683-4.302 66.823-4.297 75.612a2.086 2.086 0 0 0 2.085 2.086h.001a2.089 2.089 0 0 0 2.084-2.088c-.005-8.967 3.758-67.2 4.399-77.044C65.763 9.112 65.896 7.793 66.021 6.417zM28.875 17.084a2469.104 2469.104 0 0 1-22.263 7.397C10.267 18.872 17.697 9.655 28.777 6.13c4.087-1.302 8.886-1.96 14.267-1.96 6.873 0 12.923 1.091 16.377 2.068-5.584 2.277-17.674 6.499-30.546 10.846zm45.549 31.873l-2.377-6.31-4.438-1.086a1.043 1.043 0 0 0-.495 2.026l3.369.824 1.938 5.15-4.379 1.321 3.418 6.843 5.453-1.25.521-8.427-3.01.909zm8.057-37.154a2.082 2.082 0 0 1-2.064-1.826c-.173-1.366-.03-3.918-.015-4.204.067-1.149 1.033-2.057 2.206-1.959a2.087 2.087 0 0 1 1.959 2.204c-.055.935-.106 2.695-.013 3.441a2.088 2.088 0 0 1-2.073 2.344zM67.697 24.688a11.78 11.78 0 0 1-2.315-.244 2.086 2.086 0 0 1 .893-4.073c.289.062 1.21.21 1.9.12a2.09 2.09 0 0 1 2.327 1.81 2.082 2.082 0 0 1-1.808 2.329 8.223 8.223 0 0 1-.997.058zm28.881-.216a23.94 23.94 0 0 1-1.854-.075 2.084 2.084 0 0 1-1.9-2.253c.096-1.146 1.111-2.01 2.252-1.903.44.036 1.764.11 2.578.009 1.124-.138 2.188.666 2.33 1.81a2.086 2.086 0 0 1-1.809 2.329 13.54 13.54 0 0 1-1.597.083zM82.517 41.164a2.086 2.086 0 0 1-2.067-1.826c-.171-1.366-.028-3.918-.012-4.204.067-1.15 1.026-2.042 2.203-1.959a2.085 2.085 0 0 1 1.961 2.203c-.055.935-.107 2.695-.014 3.441a2.083 2.083 0 0 1-2.071 2.345zm-7.879-26.059c-.731 0-1.44-.385-1.823-1.068-.68-1.218-2.235-2.178-2.777-2.446a2.087 2.087 0 0 1-.955-2.787 2.074 2.074 0 0 1 2.777-.964c.318.154 3.15 1.577 4.597 4.163a2.086 2.086 0 0 1-1.819 3.102zm15.699 0a2.084 2.084 0 0 1-1.113-3.851c.613-.385 1.597-1.74 2.071-2.571a2.086 2.086 0 0 1 3.621 2.069c-.275.481-1.735 2.942-3.473 4.033a2.06 2.06 0 0 1-1.106.32zM69.182 35.796a2.087 2.087 0 0 1-1.026-3.902c1.09-.616 2.527-1.675 2.849-2.209a2.085 2.085 0 0 1 3.578 2.142c-1.062 1.775-3.834 3.395-4.38 3.701a2.086 2.086 0 0 1-1.021.268zm25.69 0c-1.279 0-3.788-.704-4.58-3.411a2.085 2.085 0 0 1 1.415-2.587 2.08 2.08 0 0 1 2.587 1.415c.124.42.56.432.562.414 1.173-.044 2.105.89 2.13 2.042a2.088 2.088 0 0 1-2.044 2.128l-.07-.001z"></path></g><g id="SvgjsG165090" class="text" transform="translate(353.1, 280.5600338470154) scale(1)" light-content="false" fill="#454545"><path d="M-340.32 -12.18C-340.32 -12.38 -340.52 -12.56 -340.92 -12.72C-341.72 -13 -342.12 -13.4 -342.12 -13.92L-342.12 -14.34C-342.12 -14.5 -341.82 -14.79 -341.22 -15.21C-340.62 -15.63 -340.31 -15.87 -340.29 -15.93C-340.27 -15.99 -340.2 -16.42 -340.08 -17.22C-340.08 -17.82 -340.42 -18.4 -341.1 -18.96C-341.78 -19.52 -342.12 -20 -342.12 -20.4C-342.12 -20.8 -341.81 -21.26 -341.19 -21.78C-340.57 -22.3 -340.26 -22.58 -340.26 -22.62C-340.26 -22.94 -340.36 -23.26 -340.56 -23.58C-340.76 -23.9 -340.88 -24.19 -340.92 -24.45C-340.96 -24.71 -340.98 -25.63 -340.98 -27.21C-340.98 -28.79 -340.76 -31.86 -340.32 -36.42C-340.32 -36.66 -340.45 -36.87 -340.71 -37.05C-340.97 -37.23 -341.1 -37.44 -341.1 -37.68C-341.1 -37.92 -340.88 -38.92 -340.44 -40.68C-340 -42.44 -339.78 -43.54 -339.78 -43.98C-339.78 -44.58 -340.68 -45.13 -342.48 -45.63C-344.28 -46.13 -345.57 -46.38 -346.35 -46.38C-347.13 -46.38 -348.45 -45.81 -350.31 -44.67C-352.17 -43.53 -353.1 -42.8 -353.1 -42.48C-353.1 -42.28 -352.85 -41.46 -352.35 -40.02C-351.85 -38.58 -351.6 -37.46 -351.6 -36.66C-351.6 -35.86 -351.7 -34.73 -351.9 -33.27C-352.1 -31.81 -352.2 -30.88 -352.2 -30.48C-352.2 -30.36 -351.87 -30.13 -351.21 -29.79C-350.55 -29.45 -350.22 -28.94 -350.22 -28.26C-350.22 -27.58 -350.66 -26.94 -351.54 -26.34C-351.86 -26.14 -352.02 -26.01 -352.02 -25.95C-352.02 -25.89 -351.97 -25.33 -351.87 -24.27C-351.77 -23.21 -351.67 -21.76 -351.57 -19.92C-351.47 -18.08 -351.42 -16.54 -351.42 -15.3C-351.42 -14.06 -351.6 -11.46 -351.96 -7.5L-352.38 -6.66C-352.42 -6.46 -352.54 -5.48 -352.74 -3.72C-352.94 -1.96 -353.04 -0.96 -353.04 -0.72C-353.04 -0.28 -351.71 0.16 -349.05 0.6C-346.39 1.04 -344.48 1.26 -343.32 1.26C-343.08 1.26 -342.68 1.04 -342.12 0.6C-341.92 0.44 -341.65 0.22 -341.31 -0.06C-340.97 -0.34 -340.7 -0.55 -340.5 -0.69C-340.3 -0.83 -339.97 -1.06 -339.51 -1.38C-339.05 -1.7 -338.82 -1.96 -338.82 -2.16C-339.9 -4.32 -340.44 -6.34 -340.44 -8.22C-340.44 -10.1 -340.4 -11.42 -340.32 -12.18Z M-319.86 -22.2L-320.28 -21.18C-321.12 -19.14 -321.54 -17.8 -321.54 -17.16C-321.54 -16.84 -321.33 -16.25 -320.91 -15.39C-320.49 -14.53 -320.28 -14.01 -320.28 -13.83C-320.28 -13.65 -320.39 -13.32 -320.61 -12.84C-320.83 -12.36 -320.94 -11.98 -320.94 -11.7L-321.3 -6C-321.3 -5.92 -321.08 -5.83 -320.64 -5.73C-320.2 -5.63 -319.86 -5.46 -319.62 -5.22L-319.5 -4.38C-319.5 -4.1 -319.56 -3.9 -319.68 -3.78L-321.06 -2.64L-321 -1.56C-320.88 0.68 -320.7 1.92 -320.46 2.16C-320.26 2.36 -319.58 2.61 -318.42 2.91C-317.26 3.21 -316.35 3.36 -315.69 3.36C-315.03 3.36 -314.13 3.15 -312.99 2.73C-311.85 2.31 -310.91 1.88 -310.17 1.44C-309.43 1 -309.06 0.73 -309.06 0.63C-309.06 0.53 -309.26 0 -309.66 -0.96C-310.06 -1.92 -310.46 -3.05 -310.86 -4.35C-311.26 -5.65 -311.46 -6.61 -311.46 -7.23C-311.46 -7.85 -311.18 -8.46 -310.62 -9.06C-310.62 -9.58 -310.84 -10.18 -311.28 -10.86C-311.36 -10.94 -311.4 -11.43 -311.4 -12.33C-311.4 -13.23 -311.3 -14.82 -311.1 -17.1C-311.1 -17.34 -311.7 -17.52 -312.9 -17.64C-313.02 -17.64 -313.08 -17.77 -313.08 -18.03C-313.08 -18.29 -313.02 -18.64 -312.9 -19.08C-312.62 -19.4 -312.06 -19.78 -311.22 -20.22C-311.22 -23.74 -311.1 -26.1 -310.86 -27.3C-310.82 -27.66 -311.59 -28.54 -313.17 -29.94C-314.75 -31.34 -315.82 -32.04 -316.38 -32.04C-318.26 -32.04 -320.26 -31.62 -322.38 -30.78C-322.98 -30.18 -324.08 -28.48 -325.68 -25.68C-325.68 -25.6 -325.74 -25.56 -325.86 -25.56C-325.98 -25.56 -326.24 -25.68 -326.64 -25.92C-326.64 -26.92 -326.46 -28.86 -326.1 -31.74C-326.1 -31.9 -326.64 -32.2 -327.72 -32.64C-328.8 -33.08 -329.6 -33.3 -330.12 -33.3C-330.64 -33.3 -331.87 -32.82 -333.81 -31.86C-335.75 -30.9 -336.72 -30.26 -336.72 -29.94L-336.36 -28.92C-335.64 -26.88 -335.28 -24.58 -335.28 -22.02C-335.28 -20.46 -335.38 -19.04 -335.58 -17.76L-335.7 -16.98C-335.7 -16.86 -335.5 -16.68 -335.1 -16.44C-334.7 -16.2 -334.46 -16.04 -334.38 -15.96L-334.32 -15.42C-334.32 -15.06 -334.42 -14.78 -334.62 -14.58L-335.76 -13.68C-335.76 -12.28 -335.66 -10.59 -335.46 -8.61C-335.26 -6.63 -335.16 -5.38 -335.16 -4.86C-335.16 -4.34 -335.26 -3.98 -335.46 -3.78C-335.62 -3.58 -335.79 -2.91 -335.97 -1.77C-336.15 -0.63 -336.24 0.3 -336.24 1.02L-335.04 1.32C-333.6 1.88 -332.22 2.16 -330.9 2.16C-330.3 2.16 -329.27 1.81 -327.81 1.11C-326.35 0.41 -325.54 0.06 -325.38 0.06C-325.22 0.06 -325.14 -0.01 -325.14 -0.15C-325.14 -0.29 -325.2 -0.74 -325.32 -1.5C-325.44 -2.26 -325.5 -3.25 -325.5 -4.47C-325.5 -5.69 -325.42 -6.38 -325.26 -6.54C-325.26 -6.58 -325.42 -6.72 -325.74 -6.96C-326.06 -7.2 -326.22 -7.36 -326.22 -7.44L-326.22 -7.5C-326.22 -8.94 -325.82 -10.06 -325.02 -10.86L-324.78 -11.76C-324.78 -12.28 -324.94 -13 -325.26 -13.92L-325.68 -16.74C-325.68 -17.7 -325.09 -19.02 -323.91 -20.7C-322.73 -22.38 -321.86 -23.22 -321.3 -23.22C-320.34 -22.82 -319.86 -22.48 -319.86 -22.2Z M-295.08 -20.34C-295.08 -21.02 -295.11 -21.39 -295.17 -21.45C-295.23 -21.51 -295.46 -21.54 -295.86 -21.54C-296.26 -21.54 -296.63 -21.68 -296.97 -21.96C-297.31 -22.24 -297.48 -22.74 -297.48 -23.46C-297.48 -23.7 -296.88 -23.82 -295.68 -23.82L-294.18 -23.82C-293.66 -23.82 -293.38 -23.84 -293.34 -23.88C-292.46 -24.72 -291.66 -25.85 -290.94 -27.27C-290.22 -28.69 -289.86 -29.56 -289.86 -29.88C-289.86 -30.2 -290.05 -30.64 -290.43 -31.2C-290.81 -31.76 -291.08 -32.04 -291.24 -32.04C-292.52 -31.2 -293.46 -30.78 -294.06 -30.78C-294.66 -30.78 -295.1 -30.86 -295.38 -31.02C-295.62 -31.26 -295.76 -32.2 -295.8 -33.84L-294.66 -42.18C-294.66 -42.38 -294.68 -42.5 -294.72 -42.54C-294.96 -42.78 -296.5 -42.94 -299.34 -43.02C-300.1 -43.02 -301.37 -42.44 -303.15 -41.28C-304.93 -40.12 -305.82 -39.34 -305.82 -38.94L-305.52 -38.04C-305.04 -36.28 -304.8 -34.32 -304.8 -32.16C-304.8 -31.16 -304.84 -30.62 -304.92 -30.54C-305 -30.46 -305.16 -30.42 -305.4 -30.42L-306.6 -30.48C-306.92 -30.48 -307.14 -30.42 -307.26 -30.3C-307.38 -30.18 -307.74 -29.22 -308.34 -27.42C-308.94 -25.62 -309.24 -24.48 -309.24 -24C-309.24 -23.88 -309.05 -23.64 -308.67 -23.28C-308.29 -22.92 -308.02 -22.74 -307.86 -22.74C-307.7 -22.74 -307.6 -22.76 -307.56 -22.8C-307.52 -22.84 -307.45 -22.89 -307.35 -22.95C-307.25 -23.01 -307.1 -23.07 -306.9 -23.13C-306.7 -23.19 -306.41 -23.22 -306.03 -23.22C-305.65 -23.22 -305.42 -23.18 -305.34 -23.1C-305.26 -23.02 -305.22 -21.97 -305.22 -19.95C-305.22 -17.93 -305.36 -16.36 -305.64 -15.24C-305.64 -15.16 -305.52 -15.06 -305.28 -14.94C-305.04 -14.82 -304.8 -14.68 -304.56 -14.52C-304.32 -14.36 -304.2 -14.1 -304.2 -13.74C-304.2 -13.38 -304.41 -13.04 -304.83 -12.72C-305.25 -12.4 -305.46 -12.2 -305.46 -12.12L-305.46 -11.16C-305.46 -5.92 -305.7 -2.86 -306.18 -1.98L-306.18 -1.86C-306.18 -1.5 -305.83 -0.93 -305.13 -0.15C-304.43 0.63 -303.91 1.02 -303.57 1.02C-303.23 1.02 -302.62 1.25 -301.74 1.71C-300.86 2.17 -300.36 2.4 -300.24 2.4L-299.1 2.28C-296.9 1.96 -295.36 1.58 -294.48 1.14C-294.04 0.9 -293.46 0.46 -292.74 -0.18C-292.02 -0.82 -291.66 -1.22 -291.66 -1.38C-291.66 -2.06 -292.32 -2.84 -293.64 -3.72C-294.12 -4.2 -294.46 -5.88 -294.66 -8.76C-294.66 -8.84 -294.77 -8.88 -294.99 -8.88C-295.21 -8.88 -295.68 -8.74 -296.4 -8.46C-296.72 -8.46 -296.88 -8.74 -296.88 -9.3L-296.88 -9.66C-296.88 -9.9 -296.58 -10.26 -295.98 -10.74C-295.38 -11.22 -295.08 -11.52 -295.08 -11.64C-295.2 -12.08 -295.26 -12.96 -295.26 -14.28Z M-276.84 -23.34C-276.08 -22.9 -275.7 -22.5 -275.7 -22.14C-275.7 -21.98 -275.79 -21.81 -275.97 -21.63C-276.15 -21.45 -276.26 -21.02 -276.3 -20.34C-276.34 -19.66 -276.38 -19.06 -276.42 -18.54C-276.46 -18.02 -276.62 -17.76 -276.9 -17.76C-277.78 -17.76 -278.5 -18 -279.06 -18.48C-279.62 -18.96 -279.95 -19.34 -280.05 -19.62C-280.15 -19.9 -280.22 -20.14 -280.26 -20.34C-280.06 -20.54 -279.96 -21.01 -279.96 -21.75C-279.96 -22.49 -280.02 -23.24 -280.14 -24C-279.54 -25.4 -278.9 -26.26 -278.22 -26.58L-277.26 -26.7C-276.7 -26.7 -276.42 -26.54 -276.42 -26.22C-276.78 -25.3 -276.96 -24.61 -276.96 -24.15C-276.96 -23.69 -276.92 -23.42 -276.84 -23.34ZM-266.64 -9.24L-266.64 -9.54C-266.64 -9.7 -266.85 -9.87 -267.27 -10.05C-267.69 -10.23 -267.99 -10.32 -268.17 -10.32C-268.35 -10.32 -268.68 -10 -269.16 -9.36C-270.76 -7.76 -273.24 -6.96 -276.6 -6.96C-277.72 -6.96 -278.44 -7.12 -278.76 -7.44C-279.64 -8.32 -280.4 -9.72 -281.04 -11.64C-281.04 -11.92 -280.86 -12.26 -280.5 -12.66C-280.14 -13.06 -279.93 -13.26 -279.87 -13.26C-279.81 -13.26 -279.42 -12.94 -278.7 -12.3C-277.98 -11.66 -277.54 -11.34 -277.38 -11.34C-276.82 -11.34 -275.49 -11.57 -273.39 -12.03C-271.29 -12.49 -269.98 -12.98 -269.46 -13.5C-267.58 -15.38 -266.64 -17.94 -266.64 -21.18C-266.64 -21.26 -266.7 -21.3 -266.82 -21.3L-268.14 -21.06C-268.62 -21.06 -268.86 -21.32 -268.86 -21.84C-268.86 -22.36 -268.73 -22.74 -268.47 -22.98C-268.21 -23.22 -267.6 -23.56 -266.64 -24C-266.64 -26.36 -267.58 -28.84 -269.46 -31.44C-269.98 -31.96 -272.36 -32.24 -276.6 -32.28C-278.68 -32.28 -282.1 -30.9 -286.86 -28.14C-287.5 -27.5 -288.26 -26.23 -289.14 -24.33C-290.02 -22.43 -290.46 -21.3 -290.46 -20.94C-290.46 -20.9 -290.06 -20.48 -289.26 -19.68L-289.14 -18.96C-289.14 -18.68 -289.22 -18.46 -289.38 -18.3C-289.54 -18.14 -289.86 -17.93 -290.34 -17.67C-290.82 -17.41 -291.08 -17.26 -291.12 -17.22C-291.16 -17.18 -291.18 -16.41 -291.18 -14.91C-291.18 -13.41 -291.09 -11.52 -290.91 -9.24C-290.73 -6.96 -290.48 -5.68 -290.16 -5.4L-288.96 -4.38C-286.64 -2.34 -285.48 -1.08 -285.48 -0.6C-285.48 -0.4 -285.12 -0.16 -284.4 0.12C-282.44 0.92 -280.3 1.32 -277.98 1.32C-277.94 1.32 -277.67 1.02 -277.17 0.42C-276.67 -0.18 -276.18 -0.48 -275.7 -0.48C-275.34 -0.48 -275 -0.02 -274.68 0.9C-274.52 1.26 -274.41 1.48 -274.35 1.56C-274.29 1.64 -274.05 1.68 -273.63 1.68C-273.21 1.68 -272.35 1.43 -271.05 0.93C-269.75 0.43 -269.05 0.01 -268.95 -0.33C-268.85 -0.67 -268.41 -1.28 -267.63 -2.16C-266.85 -3.04 -266.41 -3.6 -266.31 -3.84C-266.21 -4.08 -266.16 -4.32 -266.16 -4.56Z M-257.34 -34.02C-258.3 -34.02 -259.3 -33.68 -260.34 -33C-260.7 -32.72 -261.13 -32.39 -261.63 -32.01C-262.13 -31.63 -262.5 -31.36 -262.74 -31.2C-262.98 -31.04 -263.28 -30.87 -263.64 -30.69C-264 -30.51 -264.24 -30.38 -264.36 -30.3C-264.48 -30.22 -264.54 -29.94 -264.54 -29.46C-264.54 -28.98 -264.28 -27.84 -263.76 -26.04C-263.24 -24.24 -262.98 -23.08 -262.98 -22.56C-262.98 -22.04 -263.12 -21.65 -263.4 -21.39C-263.68 -21.13 -263.82 -20.98 -263.82 -20.94L-262.92 -16.92L-262.98 -14.94C-263.18 -10.78 -263.38 -8.28 -263.58 -7.44C-262.5 -6.84 -261.96 -6.29 -261.96 -5.79C-261.96 -5.29 -262.18 -4.9 -262.62 -4.62L-263.28 -4.2C-263.28 -3.08 -263.41 -1.86 -263.67 -0.54C-263.93 0.78 -264.06 1.48 -264.06 1.56C-264.06 1.88 -263.22 2.11 -261.54 2.25C-259.86 2.39 -258.67 2.46 -257.97 2.46C-257.27 2.46 -255.97 1.96 -254.07 0.96C-252.17 -0.04 -251.22 -0.72 -251.22 -1.08C-251.22 -1.32 -251.41 -1.86 -251.79 -2.7C-252.17 -3.54 -252.36 -4.08 -252.36 -4.32C-252.36 -4.56 -252.22 -5.02 -251.94 -5.7C-252.06 -5.98 -252.12 -6.89 -252.12 -8.43C-252.12 -9.97 -252.02 -12.1 -251.82 -14.82C-251.82 -15.06 -251.98 -15.18 -252.3 -15.18C-252.62 -15.18 -252.94 -15.12 -253.26 -15C-253.66 -15 -253.88 -15.52 -253.92 -16.56C-253.92 -17.16 -253.08 -18.22 -251.4 -19.74C-249.72 -21.26 -248.42 -22.02 -247.5 -22.02C-246.58 -22.02 -245.4 -21.54 -243.96 -20.58L-243.84 -20.58C-243.56 -20.58 -243.08 -20.68 -242.4 -20.88C-242.16 -21.08 -241.94 -22.56 -241.74 -25.32C-241.74 -26.96 -242 -28.58 -242.52 -30.18C-243.88 -31.58 -245.56 -32.34 -247.56 -32.46C-248.4 -32.46 -250.24 -30.36 -253.08 -26.16C-253.6 -26.16 -253.92 -26.52 -254.04 -27.24C-254.04 -29.16 -253.84 -30.84 -253.44 -32.28C-253.44 -32.6 -253.78 -33.18 -254.46 -34.02C-254.82 -33.9 -255.18 -33.84 -255.54 -33.84Z M-223.68 -22.2L-224.1 -21.18C-224.94 -19.14 -225.36 -17.8 -225.36 -17.16C-225.36 -16.84 -225.15 -16.25 -224.73 -15.39C-224.31 -14.53 -224.1 -14.01 -224.1 -13.83C-224.1 -13.65 -224.21 -13.32 -224.43 -12.84C-224.65 -12.36 -224.76 -11.98 -224.76 -11.7L-225.12 -6C-225.12 -5.92 -224.9 -5.83 -224.46 -5.73C-224.02 -5.63 -223.68 -5.46 -223.44 -5.22L-223.32 -4.38C-223.32 -4.1 -223.38 -3.9 -223.5 -3.78L-224.88 -2.64L-224.82 -1.56C-224.7 0.68 -224.52 1.92 -224.28 2.16C-224.08 2.36 -223.4 2.61 -222.24 2.91C-221.08 3.21 -220.17 3.36 -219.51 3.36C-218.85 3.36 -217.95 3.15 -216.81 2.73C-215.67 2.31 -214.73 1.88 -213.99 1.44C-213.25 1 -212.88 0.73 -212.88 0.63C-212.88 0.53 -213.08 0 -213.48 -0.96C-213.88 -1.92 -214.28 -3.05 -214.68 -4.35C-215.08 -5.65 -215.28 -6.61 -215.28 -7.23C-215.28 -7.85 -215 -8.46 -214.44 -9.06C-214.44 -9.58 -214.66 -10.18 -215.1 -10.86C-215.18 -10.94 -215.22 -11.43 -215.22 -12.33C-215.22 -13.23 -215.12 -14.82 -214.92 -17.1C-214.92 -17.34 -215.52 -17.52 -216.72 -17.64C-216.84 -17.64 -216.9 -17.77 -216.9 -18.03C-216.9 -18.29 -216.84 -18.64 -216.72 -19.08C-216.44 -19.4 -215.88 -19.78 -215.04 -20.22C-215.04 -23.74 -214.92 -26.1 -214.68 -27.3C-214.64 -27.66 -215.41 -28.54 -216.99 -29.94C-218.57 -31.34 -219.64 -32.04 -220.2 -32.04C-222.08 -32.04 -224.08 -31.62 -226.2 -30.78C-226.8 -30.18 -227.9 -28.48 -229.5 -25.68C-229.5 -25.6 -229.56 -25.56 -229.68 -25.56C-229.8 -25.56 -230.06 -25.68 -230.46 -25.92C-230.46 -26.92 -230.28 -28.86 -229.92 -31.74C-229.92 -31.9 -230.46 -32.2 -231.54 -32.64C-232.62 -33.08 -233.42 -33.3 -233.94 -33.3C-234.46 -33.3 -235.69 -32.82 -237.63 -31.86C-239.57 -30.9 -240.54 -30.26 -240.54 -29.94L-240.18 -28.92C-239.46 -26.88 -239.1 -24.58 -239.1 -22.02C-239.1 -20.46 -239.2 -19.04 -239.4 -17.76L-239.52 -16.98C-239.52 -16.86 -239.32 -16.68 -238.92 -16.44C-238.52 -16.2 -238.28 -16.04 -238.2 -15.96L-238.14 -15.42C-238.14 -15.06 -238.24 -14.78 -238.44 -14.58L-239.58 -13.68C-239.58 -12.28 -239.48 -10.59 -239.28 -8.61C-239.08 -6.63 -238.98 -5.38 -238.98 -4.86C-238.98 -4.34 -239.08 -3.98 -239.28 -3.78C-239.44 -3.58 -239.61 -2.91 -239.79 -1.77C-239.97 -0.63 -240.06 0.3 -240.06 1.02L-238.86 1.32C-237.42 1.88 -236.04 2.16 -234.72 2.16C-234.12 2.16 -233.09 1.81 -231.63 1.11C-230.17 0.41 -229.36 0.06 -229.2 0.06C-229.04 0.06 -228.96 -0.01 -228.96 -0.15C-228.96 -0.29 -229.02 -0.74 -229.14 -1.5C-229.26 -2.26 -229.32 -3.25 -229.32 -4.47C-229.32 -5.69 -229.24 -6.38 -229.08 -6.54C-229.08 -6.58 -229.24 -6.72 -229.56 -6.96C-229.88 -7.2 -230.04 -7.36 -230.04 -7.44L-230.04 -7.5C-230.04 -8.94 -229.64 -10.06 -228.84 -10.86L-228.6 -11.76C-228.6 -12.28 -228.76 -13 -229.08 -13.92L-229.5 -16.74C-229.5 -17.7 -228.91 -19.02 -227.73 -20.7C-226.55 -22.38 -225.68 -23.22 -225.12 -23.22C-224.16 -22.82 -223.68 -22.48 -223.68 -22.2Z M-198.24 -12.66C-198.24 -11.86 -198.12 -11.34 -197.88 -11.1L-197.82 -10.98C-197.82 -10.66 -198.26 -10.15 -199.14 -9.45C-200.02 -8.75 -200.64 -8.4 -201 -8.4C-201.36 -8.4 -201.81 -8.67 -202.35 -9.21C-202.89 -9.75 -203.16 -10.23 -203.16 -10.65C-203.16 -11.07 -202.92 -11.38 -202.44 -11.58C-202.32 -11.7 -202.26 -11.91 -202.26 -12.21C-202.26 -12.51 -202.42 -12.92 -202.74 -13.44C-202.74 -13.92 -202.11 -14.48 -200.85 -15.12C-199.59 -15.76 -198.7 -16.08 -198.18 -16.08C-198.1 -16.08 -198.06 -15.94 -198.06 -15.66ZM-188.4 -15.24L-188.4 -15.6L-188.94 -16.44C-188.94 -16.52 -188.72 -17 -188.28 -17.88C-188.16 -18.16 -188.1 -19.3 -188.1 -21.3L-188.46 -21.84C-188.66 -22.2 -188.76 -22.62 -188.76 -23.1C-188.76 -23.58 -188.57 -24.2 -188.19 -24.96C-187.81 -25.72 -187.62 -26.14 -187.62 -26.22C-187.62 -27.1 -188.24 -27.99 -189.48 -28.89C-190.72 -29.79 -192.01 -30.39 -193.35 -30.69C-194.69 -30.99 -196.24 -31.72 -198 -32.88C-199.08 -32.88 -200.86 -32.54 -203.34 -31.86C-205.82 -31.18 -207.3 -30.7 -207.78 -30.42C-208.06 -30.22 -208.57 -29.41 -209.31 -27.99C-210.05 -26.57 -210.42 -25.75 -210.42 -25.53C-210.42 -25.31 -210.26 -24.96 -209.94 -24.48C-209.62 -24 -209.42 -23.76 -209.34 -23.76C-209.26 -23.76 -208.5 -24.05 -207.06 -24.63C-205.62 -25.21 -204.5 -25.5 -203.7 -25.5L-202.5 -25.38C-200.1 -25.14 -198.68 -24.8 -198.24 -24.36C-197.68 -23.4 -197.4 -22.62 -197.4 -22.02C-197.4 -21.78 -197.74 -21.48 -198.42 -21.12C-198.74 -20.92 -199.01 -20.82 -199.23 -20.82C-199.45 -20.82 -199.71 -20.95 -200.01 -21.21C-200.31 -21.47 -200.52 -21.6 -200.64 -21.6C-202.24 -21.6 -204.32 -20.92 -206.88 -19.56C-209.44 -18.2 -210.96 -17.2 -211.44 -16.56L-211.98 -15.36C-212.3 -14.6 -212.63 -13.38 -212.97 -11.7C-213.31 -10.02 -213.48 -8.28 -213.48 -6.48L-212.82 -6.3C-211.38 -5.94 -210.66 -5.4 -210.66 -4.68C-210.66 -4.28 -210.86 -3.9 -211.26 -3.54C-211.42 -3.42 -211.5 -3.32 -211.5 -3.24C-211.5 -3.16 -211.2 -2.79 -210.6 -2.13C-210 -1.47 -209.13 -0.78 -207.99 -0.06C-206.85 0.66 -205.7 1.02 -204.54 1.02L-203.52 0.36C-201.52 -0.96 -200.26 -1.96 -199.74 -2.64C-199.42 -3.08 -199.2 -3.3 -199.08 -3.3L-198.3 -3.06L-198.3 -2.82L-198.48 0C-198.48 0.28 -198.44 0.46 -198.36 0.54L-197.4 0.9C-195.48 1.62 -194.2 1.98 -193.56 1.98L-193.44 1.98L-192.9 1.68C-191.74 1 -190.7 0.66 -189.78 0.66C-189.22 0.66 -188.42 0.28 -187.38 -0.48C-187.02 -0.72 -186.84 -0.88 -186.84 -0.96L-187.92 -2.94L-188.4 -6.12L-189.3 -6.48C-189.9 -6.72 -190.2 -7 -190.2 -7.32C-190.2 -8.4 -189.54 -9.34 -188.22 -10.14C-188.14 -10.14 -188.1 -10.32 -188.1 -10.68Z M-172.92 -20.34C-172.92 -21.02 -172.95 -21.39 -173.01 -21.45C-173.07 -21.51 -173.3 -21.54 -173.7 -21.54C-174.1 -21.54 -174.47 -21.68 -174.81 -21.96C-175.15 -22.24 -175.32 -22.74 -175.32 -23.46C-175.32 -23.7 -174.72 -23.82 -173.52 -23.82L-172.02 -23.82C-171.5 -23.82 -171.22 -23.84 -171.18 -23.88C-170.3 -24.72 -169.5 -25.85 -168.78 -27.27C-168.06 -28.69 -167.7 -29.56 -167.7 -29.88C-167.7 -30.2 -167.89 -30.64 -168.27 -31.2C-168.65 -31.76 -168.92 -32.04 -169.08 -32.04C-170.36 -31.2 -171.3 -30.78 -171.9 -30.78C-172.5 -30.78 -172.94 -30.86 -173.22 -31.02C-173.46 -31.26 -173.6 -32.2 -173.64 -33.84L-172.5 -42.18C-172.5 -42.38 -172.52 -42.5 -172.56 -42.54C-172.8 -42.78 -174.34 -42.94 -177.18 -43.02C-177.94 -43.02 -179.21 -42.44 -180.99 -41.28C-182.77 -40.12 -183.66 -39.34 -183.66 -38.94L-183.36 -38.04C-182.88 -36.28 -182.64 -34.32 -182.64 -32.16C-182.64 -31.16 -182.68 -30.62 -182.76 -30.54C-182.84 -30.46 -183 -30.42 -183.24 -30.42L-184.44 -30.48C-184.76 -30.48 -184.98 -30.42 -185.1 -30.3C-185.22 -30.18 -185.58 -29.22 -186.18 -27.42C-186.78 -25.62 -187.08 -24.48 -187.08 -24C-187.08 -23.88 -186.89 -23.64 -186.51 -23.28C-186.13 -22.92 -185.86 -22.74 -185.7 -22.74C-185.54 -22.74 -185.44 -22.76 -185.4 -22.8C-185.36 -22.84 -185.29 -22.89 -185.19 -22.95C-185.09 -23.01 -184.94 -23.07 -184.74 -23.13C-184.54 -23.19 -184.25 -23.22 -183.87 -23.22C-183.49 -23.22 -183.26 -23.18 -183.18 -23.1C-183.1 -23.02 -183.06 -21.97 -183.06 -19.95C-183.06 -17.93 -183.2 -16.36 -183.48 -15.24C-183.48 -15.16 -183.36 -15.06 -183.12 -14.94C-182.88 -14.82 -182.64 -14.68 -182.4 -14.52C-182.16 -14.36 -182.04 -14.1 -182.04 -13.74C-182.04 -13.38 -182.25 -13.04 -182.67 -12.72C-183.09 -12.4 -183.3 -12.2 -183.3 -12.12L-183.3 -11.16C-183.3 -5.92 -183.54 -2.86 -184.02 -1.98L-184.02 -1.86C-184.02 -1.5 -183.67 -0.93 -182.97 -0.15C-182.27 0.63 -181.75 1.02 -181.41 1.02C-181.07 1.02 -180.46 1.25 -179.58 1.71C-178.7 2.17 -178.2 2.4 -178.08 2.4L-176.94 2.28C-174.74 1.96 -173.2 1.58 -172.32 1.14C-171.88 0.9 -171.3 0.46 -170.58 -0.18C-169.86 -0.82 -169.5 -1.22 -169.5 -1.38C-169.5 -2.06 -170.16 -2.84 -171.48 -3.72C-171.96 -4.2 -172.3 -5.88 -172.5 -8.76C-172.5 -8.84 -172.61 -8.88 -172.83 -8.88C-173.05 -8.88 -173.52 -8.74 -174.24 -8.46C-174.56 -8.46 -174.72 -8.74 -174.72 -9.3L-174.72 -9.66C-174.72 -9.9 -174.42 -10.26 -173.82 -10.74C-173.22 -11.22 -172.92 -11.52 -172.92 -11.64C-173.04 -12.08 -173.1 -12.96 -173.1 -14.28Z M-165.12 -40.02C-165.12 -39.7 -164.86 -39.27 -164.34 -38.73C-163.82 -38.19 -163 -37.66 -161.88 -37.14C-160.76 -36.62 -159.56 -36.36 -158.28 -36.36C-157.96 -36.36 -157.31 -36.84 -156.33 -37.8C-155.35 -38.76 -154.8 -39.42 -154.68 -39.78C-154.56 -40.14 -154.5 -40.59 -154.5 -41.13C-154.5 -41.67 -154.56 -42.2 -154.68 -42.72C-154.76 -42.8 -154.98 -42.9 -155.34 -43.02C-155.7 -43.14 -155.94 -43.26 -156.06 -43.38C-156.18 -43.5 -156.24 -43.88 -156.24 -44.52C-156.24 -45.16 -156.14 -45.88 -155.94 -46.68L-155.94 -46.74C-155.94 -47.02 -156.56 -47.28 -157.8 -47.52C-159.2 -47.52 -160.47 -47.29 -161.61 -46.83C-162.75 -46.37 -163.56 -45.91 -164.04 -45.45C-164.52 -44.99 -164.76 -44.64 -164.76 -44.4L-164.76 -44.34C-164.68 -43.86 -164.64 -43.52 -164.64 -43.32ZM-155.16 -17.1C-155.16 -17.78 -155.2 -18.12 -155.28 -18.12C-155.92 -18.12 -156.48 -18.34 -156.96 -18.78C-156.96 -19.66 -156.42 -20.44 -155.34 -21.12C-155.42 -21.76 -155.46 -22.43 -155.46 -23.13C-155.46 -23.83 -155.23 -25.17 -154.77 -27.15C-154.31 -29.13 -154.08 -30.5 -154.08 -31.26C-154.08 -31.66 -155.94 -31.94 -159.66 -32.1C-160.38 -32.1 -161.64 -31.54 -163.44 -30.42C-165.24 -29.3 -166.14 -28.62 -166.14 -28.38C-166.14 -28.06 -165.91 -27.29 -165.45 -26.07C-164.99 -24.85 -164.76 -23.94 -164.76 -23.34C-164.76 -22.74 -164.9 -22.28 -165.18 -21.96C-165.46 -21.64 -165.6 -21.44 -165.6 -21.36L-165.18 -14.22C-165.18 -12.58 -165.3 -11.3 -165.54 -10.38L-165.54 -10.32C-165.54 -10.24 -165.27 -10 -164.73 -9.6C-164.19 -9.2 -163.92 -8.86 -163.92 -8.58C-163.92 -8.3 -164.18 -8.02 -164.7 -7.74C-165.22 -7.46 -165.48 -7.26 -165.48 -7.14L-166.32 0.12C-166.32 0.44 -165.64 0.88 -164.28 1.44C-162.92 2 -161.97 2.28 -161.43 2.28C-160.89 2.28 -160.46 2.21 -160.14 2.07C-159.82 1.93 -158.24 1.36 -155.4 0.36C-154.52 0.08 -154.06 -0.08 -154.02 -0.12C-153.98 -0.16 -153.96 -0.36 -153.96 -0.72C-153.96 -1.08 -154.36 -2.14 -155.16 -3.9C-155.36 -4.34 -155.46 -5.5 -155.46 -7.38Z M-149.22 -24.6L-149.22 -24.54C-149.5 -24.26 -150.1 -22.96 -151.02 -20.64C-151.94 -18.32 -152.4 -16.88 -152.4 -16.32C-152.4 -12.4 -152.1 -9.32 -151.5 -7.08C-151.26 -6.04 -151.04 -5.52 -150.84 -5.52L-148.74 -5.82C-148.22 -5.46 -147.96 -5.08 -147.96 -4.68C-147.96 -4.44 -148.16 -4.07 -148.56 -3.57C-148.96 -3.07 -149.16 -2.8 -149.16 -2.76C-149.16 -2.48 -148.53 -1.8 -147.27 -0.72C-146.01 0.36 -144.88 1.04 -143.88 1.32L-138.78 1.74C-137.94 1.74 -137.45 1.67 -137.31 1.53C-137.17 1.39 -137.04 1.14 -136.92 0.78C-136.64 -0.02 -136.2 -0.42 -135.6 -0.42L-134.94 -0.48C-134.5 -0.48 -134.18 -0.4 -133.98 -0.24L-133.92 -0.24C-133.32 -0.24 -132.1 -1.12 -130.26 -2.88C-128.34 -4.8 -127.38 -6.1 -127.38 -6.78C-127.38 -7.46 -127.22 -8.43 -126.9 -9.69C-126.58 -10.95 -126.42 -11.76 -126.42 -12.12C-126.42 -12.16 -126.62 -12.36 -127.02 -12.72C-127.42 -13.08 -127.62 -13.45 -127.62 -13.83C-127.62 -14.21 -127.1 -14.82 -126.06 -15.66C-126.06 -16.9 -126.42 -18.2 -127.14 -19.56C-127.86 -20.92 -128.22 -21.68 -128.22 -21.84C-128.22 -22 -128.12 -22.62 -127.92 -23.7C-127.92 -24.14 -129.62 -24.36 -133.02 -24.36L-133.86 -24.36C-134.38 -24.36 -135.27 -23.66 -136.53 -22.26C-137.79 -20.86 -138.42 -19.9 -138.42 -19.38C-138.42 -19.3 -138.26 -19.13 -137.94 -18.87C-137.62 -18.61 -137.3 -18.24 -136.98 -17.76C-136.66 -17.28 -136.5 -16.84 -136.5 -16.44C-136.5 -16.04 -136.68 -15.67 -137.04 -15.33C-137.4 -14.99 -137.58 -14.76 -137.58 -14.64C-137.58 -13.8 -137.22 -13.04 -136.5 -12.36C-136.42 -11.8 -136.38 -11.26 -136.38 -10.74C-136.38 -8.42 -136.86 -6.78 -137.82 -5.82C-137.94 -5.7 -138.19 -5.64 -138.57 -5.64C-138.95 -5.64 -139.44 -5.8 -140.04 -6.12C-140.36 -6.44 -140.68 -6.94 -141 -7.62C-141.32 -8.3 -141.48 -8.77 -141.48 -9.03C-141.48 -9.29 -141.26 -10.36 -140.82 -12.24C-140.82 -12.88 -141.4 -13.46 -142.56 -13.98C-142.56 -17.74 -142.39 -19.97 -142.05 -20.67C-141.71 -21.37 -140.95 -22.37 -139.77 -23.67C-138.59 -24.97 -137.8 -25.72 -137.4 -25.92C-136.56 -26.4 -134.88 -26.7 -132.36 -26.82C-132.2 -26.82 -132.02 -27.38 -131.82 -28.5C-131.82 -28.66 -132.1 -29.09 -132.66 -29.79C-133.22 -30.49 -133.6 -30.87 -133.8 -30.93C-134 -30.99 -134.58 -31.24 -135.54 -31.68C-136.5 -32.12 -137.04 -32.34 -137.16 -32.34C-138.24 -32.34 -140.3 -32.02 -143.34 -31.38C-143.82 -31.18 -144.99 -30.23 -146.85 -28.53C-148.71 -26.83 -149.64 -25.84 -149.64 -25.56Z M-108.54 -22.2L-108.96 -21.18C-109.8 -19.14 -110.22 -17.8 -110.22 -17.16C-110.22 -16.84 -110.01 -16.25 -109.59 -15.39C-109.17 -14.53 -108.96 -14.01 -108.96 -13.83C-108.96 -13.65 -109.07 -13.32 -109.29 -12.84C-109.51 -12.36 -109.62 -11.98 -109.62 -11.7L-109.98 -6C-109.98 -5.92 -109.76 -5.83 -109.32 -5.73C-108.88 -5.63 -108.54 -5.46 -108.3 -5.22L-108.18 -4.38C-108.18 -4.1 -108.24 -3.9 -108.36 -3.78L-109.74 -2.64L-109.68 -1.56C-109.56 0.68 -109.38 1.92 -109.14 2.16C-108.94 2.36 -108.26 2.61 -107.1 2.91C-105.94 3.21 -105.03 3.36 -104.37 3.36C-103.71 3.36 -102.81 3.15 -101.67 2.73C-100.53 2.31 -99.59 1.88 -98.85 1.44C-98.11 1 -97.74 0.73 -97.74 0.63C-97.74 0.53 -97.94 0 -98.34 -0.96C-98.74 -1.92 -99.14 -3.05 -99.54 -4.35C-99.94 -5.65 -100.14 -6.61 -100.14 -7.23C-100.14 -7.85 -99.86 -8.46 -99.3 -9.06C-99.3 -9.58 -99.52 -10.18 -99.96 -10.86C-100.04 -10.94 -100.08 -11.43 -100.08 -12.33C-100.08 -13.23 -99.98 -14.82 -99.78 -17.1C-99.78 -17.34 -100.38 -17.52 -101.58 -17.64C-101.7 -17.64 -101.76 -17.77 -101.76 -18.03C-101.76 -18.29 -101.7 -18.64 -101.58 -19.08C-101.3 -19.4 -100.74 -19.78 -99.9 -20.22C-99.9 -23.74 -99.78 -26.1 -99.54 -27.3C-99.5 -27.66 -100.27 -28.54 -101.85 -29.94C-103.43 -31.34 -104.5 -32.04 -105.06 -32.04C-106.94 -32.04 -108.94 -31.62 -111.06 -30.78C-111.66 -30.18 -112.76 -28.48 -114.36 -25.68C-114.36 -25.6 -114.42 -25.56 -114.54 -25.56C-114.66 -25.56 -114.92 -25.68 -115.32 -25.92C-115.32 -26.92 -115.14 -28.86 -114.78 -31.74C-114.78 -31.9 -115.32 -32.2 -116.4 -32.64C-117.48 -33.08 -118.28 -33.3 -118.8 -33.3C-119.32 -33.3 -120.55 -32.82 -122.49 -31.86C-124.43 -30.9 -125.4 -30.26 -125.4 -29.94L-125.04 -28.92C-124.32 -26.88 -123.96 -24.58 -123.96 -22.02C-123.96 -20.46 -124.06 -19.04 -124.26 -17.76L-124.38 -16.98C-124.38 -16.86 -124.18 -16.68 -123.78 -16.44C-123.38 -16.2 -123.14 -16.04 -123.06 -15.96L-123 -15.42C-123 -15.06 -123.1 -14.78 -123.3 -14.58L-124.44 -13.68C-124.44 -12.28 -124.34 -10.59 -124.14 -8.61C-123.94 -6.63 -123.84 -5.38 -123.84 -4.86C-123.84 -4.34 -123.94 -3.98 -124.14 -3.78C-124.3 -3.58 -124.47 -2.91 -124.65 -1.77C-124.83 -0.63 -124.92 0.3 -124.92 1.02L-123.72 1.32C-122.28 1.88 -120.9 2.16 -119.58 2.16C-118.98 2.16 -117.95 1.81 -116.49 1.11C-115.03 0.41 -114.22 0.06 -114.06 0.06C-113.9 0.06 -113.82 -0.01 -113.82 -0.15C-113.82 -0.29 -113.88 -0.74 -114 -1.5C-114.12 -2.26 -114.18 -3.25 -114.18 -4.47C-114.18 -5.69 -114.1 -6.38 -113.94 -6.54C-113.94 -6.58 -114.1 -6.72 -114.42 -6.96C-114.74 -7.2 -114.9 -7.36 -114.9 -7.44L-114.9 -7.5C-114.9 -8.94 -114.5 -10.06 -113.7 -10.86L-113.46 -11.76C-113.46 -12.28 -113.62 -13 -113.94 -13.92L-114.36 -16.74C-114.36 -17.7 -113.77 -19.02 -112.59 -20.7C-111.41 -22.38 -110.54 -23.22 -109.98 -23.22C-109.02 -22.82 -108.54 -22.48 -108.54 -22.2Z M-83.1 -12.66C-83.1 -11.86 -82.98 -11.34 -82.74 -11.1L-82.68 -10.98C-82.68 -10.66 -83.12 -10.15 -84 -9.45C-84.88 -8.75 -85.5 -8.4 -85.86 -8.4C-86.22 -8.4 -86.67 -8.67 -87.21 -9.21C-87.75 -9.75 -88.02 -10.23 -88.02 -10.65C-88.02 -11.07 -87.78 -11.38 -87.3 -11.58C-87.18 -11.7 -87.12 -11.91 -87.12 -12.21C-87.12 -12.51 -87.28 -12.92 -87.6 -13.44C-87.6 -13.92 -86.97 -14.48 -85.71 -15.12C-84.45 -15.76 -83.56 -16.08 -83.04 -16.08C-82.96 -16.08 -82.92 -15.94 -82.92 -15.66ZM-73.26 -15.24L-73.26 -15.6L-73.8 -16.44C-73.8 -16.52 -73.58 -17 -73.14 -17.88C-73.02 -18.16 -72.96 -19.3 -72.96 -21.3L-73.32 -21.84C-73.52 -22.2 -73.62 -22.62 -73.62 -23.1C-73.62 -23.58 -73.43 -24.2 -73.05 -24.96C-72.67 -25.72 -72.48 -26.14 -72.48 -26.22C-72.48 -27.1 -73.1 -27.99 -74.34 -28.89C-75.58 -29.79 -76.87 -30.39 -78.21 -30.69C-79.55 -30.99 -81.1 -31.72 -82.86 -32.88C-83.94 -32.88 -85.72 -32.54 -88.2 -31.86C-90.68 -31.18 -92.16 -30.7 -92.64 -30.42C-92.92 -30.22 -93.43 -29.41 -94.17 -27.99C-94.91 -26.57 -95.28 -25.75 -95.28 -25.53C-95.28 -25.31 -95.12 -24.96 -94.8 -24.48C-94.48 -24 -94.28 -23.76 -94.2 -23.76C-94.12 -23.76 -93.36 -24.05 -91.92 -24.63C-90.48 -25.21 -89.36 -25.5 -88.56 -25.5L-87.36 -25.38C-84.96 -25.14 -83.54 -24.8 -83.1 -24.36C-82.54 -23.4 -82.26 -22.62 -82.26 -22.02C-82.26 -21.78 -82.6 -21.48 -83.28 -21.12C-83.6 -20.92 -83.87 -20.82 -84.09 -20.82C-84.31 -20.82 -84.57 -20.95 -84.87 -21.21C-85.17 -21.47 -85.38 -21.6 -85.5 -21.6C-87.1 -21.6 -89.18 -20.92 -91.74 -19.56C-94.3 -18.2 -95.82 -17.2 -96.3 -16.56L-96.84 -15.36C-97.16 -14.6 -97.49 -13.38 -97.83 -11.7C-98.17 -10.02 -98.34 -8.28 -98.34 -6.48L-97.68 -6.3C-96.24 -5.94 -95.52 -5.4 -95.52 -4.68C-95.52 -4.28 -95.72 -3.9 -96.12 -3.54C-96.28 -3.42 -96.36 -3.32 -96.36 -3.24C-96.36 -3.16 -96.06 -2.79 -95.46 -2.13C-94.86 -1.47 -93.99 -0.78 -92.85 -0.06C-91.71 0.66 -90.56 1.02 -89.4 1.02L-88.38 0.36C-86.38 -0.96 -85.12 -1.96 -84.6 -2.64C-84.28 -3.08 -84.06 -3.3 -83.94 -3.3L-83.16 -3.06L-83.16 -2.82L-83.34 0C-83.34 0.28 -83.3 0.46 -83.22 0.54L-82.26 0.9C-80.34 1.62 -79.06 1.98 -78.42 1.98L-78.3 1.98L-77.76 1.68C-76.6 1 -75.56 0.66 -74.64 0.66C-74.08 0.66 -73.28 0.28 -72.24 -0.48C-71.88 -0.72 -71.7 -0.88 -71.7 -0.96L-72.78 -2.94L-73.26 -6.12L-74.16 -6.48C-74.76 -6.72 -75.06 -7 -75.06 -7.32C-75.06 -8.4 -74.4 -9.34 -73.08 -10.14C-73 -10.14 -72.96 -10.32 -72.96 -10.68Z M-58.74 -28.56C-58.74 -28.6 -59.03 -28.7 -59.61 -28.86C-60.19 -29.02 -60.48 -29.36 -60.48 -29.88C-60.48 -30.4 -59.92 -31.12 -58.8 -32.04C-58.76 -32.08 -58.74 -32.34 -58.74 -32.82L-59.16 -41.22L-59.1 -42.12L-57.78 -46.02C-57.78 -46.26 -58.38 -46.47 -59.58 -46.65C-60.78 -46.83 -61.81 -46.92 -62.67 -46.92C-63.53 -46.92 -64.9 -46.46 -66.78 -45.54C-68.66 -44.62 -69.69 -44.07 -69.87 -43.89C-70.05 -43.71 -70.14 -43.53 -70.14 -43.35C-70.14 -43.17 -70.04 -42.34 -69.84 -40.86C-69.64 -39.38 -69.54 -37.48 -69.54 -35.16C-69.54 -35.08 -69.25 -34.94 -68.67 -34.74C-68.09 -34.54 -67.8 -34.3 -67.8 -34.02C-67.8 -33.46 -68.06 -32.97 -68.58 -32.55C-69.1 -32.13 -69.36 -31.84 -69.36 -31.68L-69.12 -20.58C-69.12 -19.5 -69.14 -18.94 -69.18 -18.9C-69.66 -18.5 -69.9 -18.22 -69.9 -18.06L-69.78 -14.82C-69.78 -13.66 -69.84 -12.84 -69.96 -12.36C-68.56 -11.8 -67.86 -11.34 -67.86 -10.98C-67.86 -10.74 -68.02 -10.3 -68.34 -9.66C-68.42 -9.58 -68.63 -9.47 -68.97 -9.33C-69.31 -9.19 -69.51 -9.08 -69.57 -9C-69.63 -8.92 -69.66 -8.73 -69.66 -8.43C-69.66 -8.13 -69.48 -7.68 -69.12 -7.08C-68.76 -6.48 -68.58 -6.16 -68.58 -6.12C-68.58 -5.6 -68.84 -4.92 -69.36 -4.08C-69.56 -3.8 -69.66 -3.64 -69.66 -3.6L-70.08 0.42C-70.08 0.62 -69.1 0.99 -67.14 1.53C-65.18 2.07 -63.8 2.34 -63 2.34L-62.28 2.16C-60.88 1.88 -60.02 1.48 -59.7 0.96C-59.54 0.68 -58.84 0.28 -57.6 -0.24C-57.16 -0.44 -56.94 -0.58 -56.94 -0.66C-56.94 -1.18 -57.37 -2.16 -58.23 -3.6C-59.09 -5.04 -59.52 -5.93 -59.52 -6.27C-59.52 -6.61 -59.37 -6.96 -59.07 -7.32C-58.77 -7.68 -58.62 -7.93 -58.62 -8.07C-58.62 -8.21 -58.73 -9.82 -58.95 -12.9C-59.17 -15.98 -59.28 -18.8 -59.28 -21.36Z M-18.66 -45.12C-19.54 -45.12 -20.14 -45.27 -20.46 -45.57C-20.78 -45.87 -21.26 -46.16 -21.9 -46.44C-22.1 -46.44 -23 -46.12 -24.6 -45.48L-27.24 -45.78C-27.92 -45.78 -30.76 -45.54 -35.76 -45.06C-36.28 -45.22 -37.48 -45.4 -39.36 -45.6C-39.56 -45.56 -40.07 -43.65 -40.89 -39.87C-41.71 -36.09 -42.12 -34.09 -42.12 -33.87C-42.12 -33.65 -41.9 -33.31 -41.46 -32.85C-41.02 -32.39 -40.38 -31.94 -39.54 -31.5C-38.7 -31.06 -37.88 -30.84 -37.08 -30.84L-36.42 -32.76C-35.98 -34.04 -35.26 -35.31 -34.26 -36.57C-33.26 -37.83 -32.2 -38.46 -31.08 -38.46C-31 -38.46 -30.96 -37.16 -30.96 -34.56C-30.96 -31.96 -31.04 -30.42 -31.2 -29.94L-32.16 -27.78C-32.16 -27.42 -31.94 -27.01 -31.5 -26.55C-31.06 -26.09 -30.84 -25.77 -30.84 -25.59C-30.84 -25.41 -30.9 -25.26 -31.02 -25.14C-31.14 -25.02 -31.2 -24.6 -31.2 -23.88L-31.02 -18.3C-31.02 -17.74 -31.06 -17.3 -31.14 -16.98L-32.04 -15.24C-32.04 -15.08 -31.69 -14.64 -30.99 -13.92C-30.29 -13.2 -29.94 -12.74 -29.94 -12.54C-30.42 -11.5 -30.9 -10.98 -31.38 -10.98C-31.42 -10.98 -31.44 -10.66 -31.44 -10.02L-31.38 -5.46C-31.38 -4.34 -31.42 -3.72 -31.5 -3.6L-32.52 0.06L-32.04 0.36C-31.68 0.56 -30.79 0.76 -29.37 0.96C-27.95 1.16 -26.16 1.26 -24 1.26C-23.24 0.5 -22.36 0 -21.36 -0.24C-20.76 -0.4 -19.99 -0.7 -19.05 -1.14C-18.11 -1.58 -17.64 -1.96 -17.64 -2.28C-17.64 -3.28 -18.1 -4.92 -19.02 -7.2C-19.18 -8.16 -19.26 -10.09 -19.26 -12.99C-19.26 -15.89 -19.14 -19.5 -18.9 -23.82C-18.9 -23.86 -19.06 -23.94 -19.38 -24.06C-19.7 -24.18 -20.02 -24.4 -20.34 -24.72C-20.66 -25.04 -20.82 -25.46 -20.82 -25.98C-20.82 -26.22 -20.34 -26.74 -19.38 -27.54C-19.38 -30.06 -19.28 -32.62 -19.08 -35.22C-19.08 -35.5 -20 -36.06 -21.84 -36.9C-21.84 -37.3 -21.71 -37.62 -21.45 -37.86C-21.19 -38.1 -20.99 -38.25 -20.85 -38.31C-20.71 -38.37 -20.3 -38.4 -19.62 -38.4C-18.94 -38.4 -17.88 -38.14 -16.44 -37.62C-15.32 -36.5 -14.42 -34.84 -13.74 -32.64C-13.54 -32 -13.4 -31.68 -13.32 -31.68C-12.56 -31.68 -11.59 -32.09 -10.41 -32.91C-9.23 -33.73 -8.64 -34.3 -8.64 -34.62C-8.64 -36.18 -8.95 -38.33 -9.57 -41.07C-10.19 -43.81 -10.62 -45.3 -10.86 -45.54C-10.9 -45.58 -11.08 -45.6 -11.4 -45.6Z M-3.18 -34.02C-4.14 -34.02 -5.14 -33.68 -6.18 -33C-6.54 -32.72 -6.97 -32.39 -7.47 -32.01C-7.97 -31.63 -8.34 -31.36 -8.58 -31.2C-8.82 -31.04 -9.12 -30.87 -9.48 -30.69C-9.84 -30.51 -10.08 -30.38 -10.2 -30.3C-10.32 -30.22 -10.38 -29.94 -10.38 -29.46C-10.38 -28.98 -10.12 -27.84 -9.6 -26.04C-9.08 -24.24 -8.82 -23.08 -8.82 -22.56C-8.82 -22.04 -8.96 -21.65 -9.24 -21.39C-9.52 -21.13 -9.66 -20.98 -9.66 -20.94L-8.76 -16.92L-8.82 -14.94C-9.02 -10.78 -9.22 -8.28 -9.42 -7.44C-8.34 -6.84 -7.8 -6.29 -7.8 -5.79C-7.8 -5.29 -8.02 -4.9 -8.46 -4.62L-9.12 -4.2C-9.12 -3.08 -9.25 -1.86 -9.51 -0.54C-9.77 0.78 -9.9 1.48 -9.9 1.56C-9.9 1.88 -9.06 2.11 -7.38 2.25C-5.7 2.39 -4.51 2.46 -3.81 2.46C-3.11 2.46 -1.81 1.96 0.09 0.96C1.99 -0.04 2.94 -0.72 2.94 -1.08C2.94 -1.32 2.75 -1.86 2.37 -2.7C1.99 -3.54 1.8 -4.08 1.8 -4.32C1.8 -4.56 1.94 -5.02 2.22 -5.7C2.1 -5.98 2.04 -6.89 2.04 -8.43C2.04 -9.97 2.14 -12.1 2.34 -14.82C2.34 -15.06 2.18 -15.18 1.86 -15.18C1.54 -15.18 1.22 -15.12 0.9 -15C0.5 -15 0.28 -15.52 0.24 -16.56C0.24 -17.16 1.08 -18.22 2.76 -19.74C4.44 -21.26 5.74 -22.02 6.66 -22.02C7.58 -22.02 8.76 -21.54 10.2 -20.58L10.32 -20.58C10.6 -20.58 11.08 -20.68 11.76 -20.88C12 -21.08 12.22 -22.56 12.42 -25.32C12.42 -26.96 12.16 -28.58 11.64 -30.18C10.28 -31.58 8.6 -32.34 6.6 -32.46C5.76 -32.46 3.92 -30.36 1.08 -26.16C0.56 -26.16 0.24 -26.52 0.12 -27.24C0.12 -29.16 0.32 -30.84 0.72 -32.28C0.72 -32.6 0.38 -33.18 -0.3 -34.02C-0.66 -33.9 -1.02 -33.84 -1.38 -33.84Z M26.1 -12.66C26.1 -11.86 26.22 -11.34 26.46 -11.1L26.52 -10.98C26.52 -10.66 26.08 -10.15 25.2 -9.45C24.32 -8.75 23.7 -8.4 23.34 -8.4C22.98 -8.4 22.53 -8.67 21.99 -9.21C21.45 -9.75 21.18 -10.23 21.18 -10.65C21.18 -11.07 21.42 -11.38 21.9 -11.58C22.02 -11.7 22.08 -11.91 22.08 -12.21C22.08 -12.51 21.92 -12.92 21.6 -13.44C21.6 -13.92 22.23 -14.48 23.49 -15.12C24.75 -15.76 25.64 -16.08 26.16 -16.08C26.24 -16.08 26.28 -15.94 26.28 -15.66ZM35.94 -15.24L35.94 -15.6L35.4 -16.44C35.4 -16.52 35.62 -17 36.06 -17.88C36.18 -18.16 36.24 -19.3 36.24 -21.3L35.88 -21.84C35.68 -22.2 35.58 -22.62 35.58 -23.1C35.58 -23.58 35.77 -24.2 36.15 -24.96C36.53 -25.72 36.72 -26.14 36.72 -26.22C36.72 -27.1 36.1 -27.99 34.86 -28.89C33.62 -29.79 32.33 -30.39 30.99 -30.69C29.65 -30.99 28.1 -31.72 26.34 -32.88C25.26 -32.88 23.48 -32.54 21 -31.86C18.52 -31.18 17.04 -30.7 16.56 -30.42C16.28 -30.22 15.77 -29.41 15.03 -27.99C14.29 -26.57 13.92 -25.75 13.92 -25.53C13.92 -25.31 14.08 -24.96 14.4 -24.48C14.72 -24 14.92 -23.76 15 -23.76C15.08 -23.76 15.84 -24.05 17.28 -24.63C18.72 -25.21 19.84 -25.5 20.64 -25.5L21.84 -25.38C24.24 -25.14 25.66 -24.8 26.1 -24.36C26.66 -23.4 26.94 -22.62 26.94 -22.02C26.94 -21.78 26.6 -21.48 25.92 -21.12C25.6 -20.92 25.33 -20.82 25.11 -20.82C24.89 -20.82 24.63 -20.95 24.33 -21.21C24.03 -21.47 23.82 -21.6 23.7 -21.6C22.1 -21.6 20.02 -20.92 17.46 -19.56C14.9 -18.2 13.38 -17.2 12.9 -16.56L12.36 -15.36C12.04 -14.6 11.71 -13.38 11.37 -11.7C11.03 -10.02 10.86 -8.28 10.86 -6.48L11.52 -6.3C12.96 -5.94 13.68 -5.4 13.68 -4.68C13.68 -4.28 13.48 -3.9 13.08 -3.54C12.92 -3.42 12.84 -3.32 12.84 -3.24C12.84 -3.16 13.14 -2.79 13.74 -2.13C14.34 -1.47 15.21 -0.78 16.35 -0.06C17.49 0.66 18.64 1.02 19.8 1.02L20.82 0.36C22.82 -0.96 24.08 -1.96 24.6 -2.64C24.92 -3.08 25.14 -3.3 25.26 -3.3L26.04 -3.06L26.04 -2.82L25.86 0C25.86 0.28 25.9 0.46 25.98 0.54L26.94 0.9C28.86 1.62 30.14 1.98 30.78 1.98L30.9 1.98L31.44 1.68C32.6 1 33.64 0.66 34.56 0.66C35.12 0.66 35.92 0.28 36.96 -0.48C37.32 -0.72 37.5 -0.88 37.5 -0.96L36.42 -2.94L35.94 -6.12L35.04 -6.48C34.44 -6.72 34.14 -7 34.14 -7.32C34.14 -8.4 34.8 -9.34 36.12 -10.14C36.2 -10.14 36.24 -10.32 36.24 -10.68Z M56.34 -26.16C56.34 -26 56.16 -25.76 55.8 -25.44C55.8 -24.28 55.44 -22.04 54.72 -18.72C54.6 -18.48 54.41 -18.24 54.15 -18C53.89 -17.76 53.76 -17.58 53.76 -17.46C53.76 -16.5 53.96 -15.64 54.36 -14.88C54.36 -14.2 54.17 -13.19 53.79 -11.85C53.41 -10.51 53.22 -9.5 53.22 -8.82C53.22 -8.74 52.97 -8.7 52.47 -8.7C51.97 -8.7 51.52 -8.9 51.12 -9.3C51.08 -9.38 50.92 -9.9 50.64 -10.86C50.36 -11.82 50.22 -12.76 50.22 -13.68L50.46 -14.82L50.22 -19.08C50.22 -19.84 50.26 -20.36 50.34 -20.64L50.34 -20.7C50.34 -20.9 49.96 -21.08 49.2 -21.24C48.56 -21.32 48.24 -21.68 48.24 -22.32L48.24 -22.68C48.24 -23.04 48.62 -23.44 49.38 -23.88C49.34 -24.32 49.32 -24.92 49.32 -25.68C49.32 -26.44 49.38 -28.2 49.5 -30.96C48.94 -30.96 48.32 -31.16 47.64 -31.56C46.88 -31.92 45.58 -32.1 43.74 -32.1L43.2 -32.1C42.92 -32.1 42.46 -31.88 41.82 -31.44C41.18 -31 40.62 -30.69 40.14 -30.51C39.66 -30.33 39.2 -30 38.76 -29.52C38.32 -29.04 38.03 -28.62 37.89 -28.26C37.75 -27.9 37.68 -27.67 37.68 -27.57C37.68 -27.47 37.96 -26.9 38.52 -25.86C39.08 -24.82 39.36 -23.88 39.36 -23.04L39.66 -21.96C40.22 -19.72 40.5 -18.3 40.5 -17.7L39.9 -15.84C39.9 -15.64 40.24 -15.37 40.92 -15.03C41.6 -14.69 41.94 -14.35 41.94 -14.01C41.94 -13.67 41.79 -13.33 41.49 -12.99C41.19 -12.65 41.04 -12.35 41.04 -12.09C41.04 -11.83 41.28 -11.23 41.76 -10.29C42.24 -9.35 42.48 -8.58 42.48 -7.98L43.68 -0.54C43.68 -0.34 44.8 0.28 47.04 1.32C47.88 1.68 48.4 1.96 48.6 2.16L49.92 1.68C50.32 1.68 50.64 1.79 50.88 2.01C51.12 2.23 51.28 2.34 51.36 2.34L52.98 1.92C54.06 1.6 55.22 1.19 56.46 0.69C57.7 0.19 58.5 -0.24 58.86 -0.6L59.46 -1.74C60.7 -4.1 61.32 -5.54 61.32 -6.06C61.32 -6.1 61.23 -6.14 61.05 -6.18C60.87 -6.22 60.67 -6.27 60.45 -6.33C60.23 -6.39 60.05 -6.49 59.91 -6.63C59.77 -6.77 59.7 -7.02 59.7 -7.38C59.7 -7.74 60 -8.08 60.6 -8.4C61.2 -8.72 61.5 -8.92 61.5 -9C61.5 -9.64 61.77 -10.93 62.31 -12.87C62.85 -14.81 63.12 -16.1 63.12 -16.74C63.12 -17.38 63.5 -18.73 64.26 -20.79C65.02 -22.85 65.4 -23.99 65.4 -24.21C65.4 -24.43 65.23 -24.72 64.89 -25.08C64.55 -25.44 64.38 -25.74 64.38 -25.98C64.38 -26.78 65.04 -27.44 66.36 -27.96C66.64 -27.96 67.46 -30.16 68.82 -34.56C68.82 -34.84 66.86 -35.1 62.94 -35.34C62.14 -35.34 60.94 -34.94 59.34 -34.14C57.74 -33.34 56.74 -32.76 56.34 -32.4C56.22 -32.28 56.16 -31.82 56.16 -31.02Z M80.58 -23.34C81.34 -22.9 81.72 -22.5 81.72 -22.14C81.72 -21.98 81.63 -21.81 81.45 -21.63C81.27 -21.45 81.16 -21.02 81.12 -20.34C81.08 -19.66 81.04 -19.06 81 -18.54C80.96 -18.02 80.8 -17.76 80.52 -17.76C79.64 -17.76 78.92 -18 78.36 -18.48C77.8 -18.96 77.47 -19.34 77.37 -19.62C77.27 -19.9 77.2 -20.14 77.16 -20.34C77.36 -20.54 77.46 -21.01 77.46 -21.75C77.46 -22.49 77.4 -23.24 77.28 -24C77.88 -25.4 78.52 -26.26 79.2 -26.58L80.16 -26.7C80.72 -26.7 81 -26.54 81 -26.22C80.64 -25.3 80.46 -24.61 80.46 -24.15C80.46 -23.69 80.5 -23.42 80.58 -23.34ZM90.78 -9.24L90.78 -9.54C90.78 -9.7 90.57 -9.87 90.15 -10.05C89.73 -10.23 89.43 -10.32 89.25 -10.32C89.07 -10.32 88.74 -10 88.26 -9.36C86.66 -7.76 84.18 -6.96 80.82 -6.96C79.7 -6.96 78.98 -7.12 78.66 -7.44C77.78 -8.32 77.02 -9.72 76.38 -11.64C76.38 -11.92 76.56 -12.26 76.92 -12.66C77.28 -13.06 77.49 -13.26 77.55 -13.26C77.61 -13.26 78 -12.94 78.72 -12.3C79.44 -11.66 79.88 -11.34 80.04 -11.34C80.6 -11.34 81.93 -11.57 84.03 -12.03C86.13 -12.49 87.44 -12.98 87.96 -13.5C89.84 -15.38 90.78 -17.94 90.78 -21.18C90.78 -21.26 90.72 -21.3 90.6 -21.3L89.28 -21.06C88.8 -21.06 88.56 -21.32 88.56 -21.84C88.56 -22.36 88.69 -22.74 88.95 -22.98C89.21 -23.22 89.82 -23.56 90.78 -24C90.78 -26.36 89.84 -28.84 87.96 -31.44C87.44 -31.96 85.06 -32.24 80.82 -32.28C78.74 -32.28 75.32 -30.9 70.56 -28.14C69.92 -27.5 69.16 -26.23 68.28 -24.33C67.4 -22.43 66.96 -21.3 66.96 -20.94C66.96 -20.9 67.36 -20.48 68.16 -19.68L68.28 -18.96C68.28 -18.68 68.2 -18.46 68.04 -18.3C67.88 -18.14 67.56 -17.93 67.08 -17.67C66.6 -17.41 66.34 -17.26 66.3 -17.22C66.26 -17.18 66.24 -16.41 66.24 -14.91C66.24 -13.41 66.33 -11.52 66.51 -9.24C66.69 -6.96 66.94 -5.68 67.26 -5.4L68.46 -4.38C70.78 -2.34 71.94 -1.08 71.94 -0.6C71.94 -0.4 72.3 -0.16 73.02 0.12C74.98 0.92 77.12 1.32 79.44 1.32C79.48 1.32 79.75 1.02 80.25 0.42C80.75 -0.18 81.24 -0.48 81.72 -0.48C82.08 -0.48 82.42 -0.02 82.74 0.9C82.9 1.26 83.01 1.48 83.07 1.56C83.13 1.64 83.37 1.68 83.79 1.68C84.21 1.68 85.07 1.43 86.37 0.93C87.67 0.43 88.37 0.01 88.47 -0.33C88.57 -0.67 89.01 -1.28 89.79 -2.16C90.57 -3.04 91.01 -3.6 91.11 -3.84C91.21 -4.08 91.26 -4.32 91.26 -4.56Z M104.82 -28.56C104.82 -28.6 104.53 -28.7 103.95 -28.86C103.37 -29.02 103.08 -29.36 103.08 -29.88C103.08 -30.4 103.64 -31.12 104.76 -32.04C104.8 -32.08 104.82 -32.34 104.82 -32.82L104.4 -41.22L104.46 -42.12L105.78 -46.02C105.78 -46.26 105.18 -46.47 103.98 -46.65C102.78 -46.83 101.75 -46.92 100.89 -46.92C100.03 -46.92 98.66 -46.46 96.78 -45.54C94.9 -44.62 93.87 -44.07 93.69 -43.89C93.51 -43.71 93.42 -43.53 93.42 -43.35C93.42 -43.17 93.52 -42.34 93.72 -40.86C93.92 -39.38 94.02 -37.48 94.02 -35.16C94.02 -35.08 94.31 -34.94 94.89 -34.74C95.47 -34.54 95.76 -34.3 95.76 -34.02C95.76 -33.46 95.5 -32.97 94.98 -32.55C94.46 -32.13 94.2 -31.84 94.2 -31.68L94.44 -20.58C94.44 -19.5 94.42 -18.94 94.38 -18.9C93.9 -18.5 93.66 -18.22 93.66 -18.06L93.78 -14.82C93.78 -13.66 93.72 -12.84 93.6 -12.36C95 -11.8 95.7 -11.34 95.7 -10.98C95.7 -10.74 95.54 -10.3 95.22 -9.66C95.14 -9.58 94.93 -9.47 94.59 -9.33C94.25 -9.19 94.05 -9.08 93.99 -9C93.93 -8.92 93.9 -8.73 93.9 -8.43C93.9 -8.13 94.08 -7.68 94.44 -7.08C94.8 -6.48 94.98 -6.16 94.98 -6.12C94.98 -5.6 94.72 -4.92 94.2 -4.08C94 -3.8 93.9 -3.64 93.9 -3.6L93.48 0.42C93.48 0.62 94.46 0.99 96.42 1.53C98.38 2.07 99.76 2.34 100.56 2.34L101.28 2.16C102.68 1.88 103.54 1.48 103.86 0.96C104.02 0.68 104.72 0.28 105.96 -0.24C106.4 -0.44 106.62 -0.58 106.62 -0.66C106.62 -1.18 106.19 -2.16 105.33 -3.6C104.47 -5.04 104.04 -5.93 104.04 -6.27C104.04 -6.61 104.19 -6.96 104.49 -7.32C104.79 -7.68 104.94 -7.93 104.94 -8.07C104.94 -8.21 104.83 -9.82 104.61 -12.9C104.39 -15.98 104.28 -18.8 104.28 -21.36Z M155.22 -31.2C155.22 -31.28 155.49 -31.6 156.03 -32.16C156.57 -32.72 156.84 -33.16 156.84 -33.48C156.84 -33.8 156.44 -34.4 155.64 -35.28C155.64 -37.56 156.08 -41.56 156.96 -47.28C156.96 -47.68 155.66 -47.92 153.06 -48C151.66 -48 149.8 -47.28 147.48 -45.84C146.68 -45.36 146.28 -45.08 146.28 -45L146.94 -42.3C146.94 -42.14 146.79 -41.77 146.49 -41.19C146.19 -40.61 146.04 -40.22 146.04 -40.02C146.04 -39.82 146.08 -39.68 146.16 -39.6C146.92 -38.84 147.42 -38.02 147.66 -37.14C147.66 -36.94 147.46 -36.57 147.06 -36.03C146.66 -35.49 146.46 -35.14 146.46 -34.98C147.1 -34.26 147.42 -30.92 147.42 -24.96L147.42 -24.42C147.42 -24.22 147.31 -24.12 147.09 -24.12C146.87 -24.12 146.6 -24.22 146.28 -24.42C146.08 -24.62 145.45 -26.18 144.39 -29.1C143.33 -32.02 142.8 -33.74 142.8 -34.26L143.04 -36.36C143.04 -36.8 142.57 -37.14 141.63 -37.38C140.69 -37.62 140.22 -37.82 140.22 -37.98C140.22 -38.98 140.62 -39.8 141.42 -40.44L141.42 -40.56C141.42 -41.08 141.06 -42.64 140.34 -45.24C139.66 -45.92 137.24 -46.26 133.08 -46.26C132.28 -46.26 131.6 -46.24 131.04 -46.2C130.6 -45.88 129.28 -45.72 127.08 -45.72L126.78 -45.72C126.42 -45.72 125.62 -45.33 124.38 -44.55C123.14 -43.77 122.52 -43.29 122.52 -43.11C122.52 -42.93 122.9 -41.65 123.66 -39.27C124.42 -36.89 124.8 -35.54 124.8 -35.22C124.8 -34.9 124.64 -34.54 124.32 -34.14C124 -33.74 123.84 -33.52 123.84 -33.48L124.38 -29.82L124.08 -26.46C124.08 -26.06 124.12 -25.82 124.2 -25.74L124.74 -25.26C125.54 -24.54 125.94 -24.04 125.94 -23.76C125.94 -23.04 125.58 -22.44 124.86 -21.96C124.62 -21.8 124.5 -21.7 124.5 -21.66L124.44 -19.74C124.44 -18.74 124.5 -18.18 124.62 -18.06C124.74 -17.94 124.8 -17.3 124.8 -16.14L124.56 -8.7C124.56 -8.34 124.58 -8.14 124.62 -8.1L124.26 -6.96C123.54 -4.76 123.18 -2.62 123.18 -0.54C123.18 -0.34 123.94 0.03 125.46 0.57C126.98 1.11 127.93 1.38 128.31 1.38C128.69 1.38 128.9 1.36 128.94 1.32L129.96 0.78C131.12 0.18 132.56 -0.52 134.28 -1.32C134.8 -1.52 135.06 -1.8 135.06 -2.16C135.06 -2.28 134.92 -3 134.64 -4.32C134.36 -5.64 134.22 -6.62 134.22 -7.26C132.98 -7.34 132.36 -7.62 132.36 -8.1C132.36 -8.26 132.47 -8.6 132.69 -9.12C132.91 -9.64 133.16 -10.04 133.44 -10.32L133.5 -11.22L133.38 -20.34C133.38 -22.82 133.46 -24.14 133.62 -24.3C134.38 -24.22 134.88 -24.06 135.12 -23.82L135.72 -21.72C137 -17.44 137.64 -14.68 137.64 -13.44C137.72 -13.36 137.93 -13.24 138.27 -13.08C138.61 -12.92 138.91 -12.74 139.17 -12.54C139.43 -12.34 139.56 -12.03 139.56 -11.61C139.56 -11.19 139.32 -10.68 138.84 -10.08C138.72 -9.92 138.66 -9.82 138.66 -9.78L139.02 -9.12C139.38 -8.24 139.74 -6.94 140.1 -5.22C140.46 -3.5 140.64 -2.08 140.64 -0.96C140.64 -0.68 141.79 -0.34 144.09 0.06C146.39 0.46 147.9 0.66 148.62 0.66C149.34 0.66 150.41 0.39 151.83 -0.15C153.25 -0.69 154.44 -1.26 155.4 -1.86C156.36 -2.46 156.84 -2.86 156.84 -3.06L156.84 -3.12L156.48 -3.96C156.24 -4.48 156.01 -5.27 155.79 -6.33C155.57 -7.39 155.46 -8.29 155.46 -9.03C155.46 -9.77 155.57 -10.25 155.79 -10.47C156.01 -10.69 156.12 -10.86 156.12 -10.98C156.12 -11.5 155.44 -12.2 154.08 -13.08C154.08 -13.8 154.58 -14.66 155.58 -15.66C155.46 -16.34 155.4 -17.95 155.4 -20.49C155.4 -23.03 155.46 -26.06 155.58 -29.58Z M172.8 -23.34C173.56 -22.9 173.94 -22.5 173.94 -22.14C173.94 -21.98 173.85 -21.81 173.67 -21.63C173.49 -21.45 173.38 -21.02 173.34 -20.34C173.3 -19.66 173.26 -19.06 173.22 -18.54C173.18 -18.02 173.02 -17.76 172.74 -17.76C171.86 -17.76 171.14 -18 170.58 -18.48C170.02 -18.96 169.69 -19.34 169.59 -19.62C169.49 -19.9 169.42 -20.14 169.38 -20.34C169.58 -20.54 169.68 -21.01 169.68 -21.75C169.68 -22.49 169.62 -23.24 169.5 -24C170.1 -25.4 170.74 -26.26 171.42 -26.58L172.38 -26.7C172.94 -26.7 173.22 -26.54 173.22 -26.22C172.86 -25.3 172.68 -24.61 172.68 -24.15C172.68 -23.69 172.72 -23.42 172.8 -23.34ZM183 -9.24L183 -9.54C183 -9.7 182.79 -9.87 182.37 -10.05C181.95 -10.23 181.65 -10.32 181.47 -10.32C181.29 -10.32 180.96 -10 180.48 -9.36C178.88 -7.76 176.4 -6.96 173.04 -6.96C171.92 -6.96 171.2 -7.12 170.88 -7.44C170 -8.32 169.24 -9.72 168.6 -11.64C168.6 -11.92 168.78 -12.26 169.14 -12.66C169.5 -13.06 169.71 -13.26 169.77 -13.26C169.83 -13.26 170.22 -12.94 170.94 -12.3C171.66 -11.66 172.1 -11.34 172.26 -11.34C172.82 -11.34 174.15 -11.57 176.25 -12.03C178.35 -12.49 179.66 -12.98 180.18 -13.5C182.06 -15.38 183 -17.94 183 -21.18C183 -21.26 182.94 -21.3 182.82 -21.3L181.5 -21.06C181.02 -21.06 180.78 -21.32 180.78 -21.84C180.78 -22.36 180.91 -22.74 181.17 -22.98C181.43 -23.22 182.04 -23.56 183 -24C183 -26.36 182.06 -28.84 180.18 -31.44C179.66 -31.96 177.28 -32.24 173.04 -32.28C170.96 -32.28 167.54 -30.9 162.78 -28.14C162.14 -27.5 161.38 -26.23 160.5 -24.33C159.62 -22.43 159.18 -21.3 159.18 -20.94C159.18 -20.9 159.58 -20.48 160.38 -19.68L160.5 -18.96C160.5 -18.68 160.42 -18.46 160.26 -18.3C160.1 -18.14 159.78 -17.93 159.3 -17.67C158.82 -17.41 158.56 -17.26 158.52 -17.22C158.48 -17.18 158.46 -16.41 158.46 -14.91C158.46 -13.41 158.55 -11.52 158.73 -9.24C158.91 -6.96 159.16 -5.68 159.48 -5.4L160.68 -4.38C163 -2.34 164.16 -1.08 164.16 -0.6C164.16 -0.4 164.52 -0.16 165.24 0.12C167.2 0.92 169.34 1.32 171.66 1.32C171.7 1.32 171.97 1.02 172.47 0.42C172.97 -0.18 173.46 -0.48 173.94 -0.48C174.3 -0.48 174.64 -0.02 174.96 0.9C175.12 1.26 175.23 1.48 175.29 1.56C175.35 1.64 175.59 1.68 176.01 1.68C176.43 1.68 177.29 1.43 178.59 0.93C179.89 0.43 180.59 0.01 180.69 -0.33C180.79 -0.67 181.23 -1.28 182.01 -2.16C182.79 -3.04 183.23 -3.6 183.33 -3.84C183.43 -4.08 183.48 -4.32 183.48 -4.56Z M198.66 -20.34C198.66 -21.02 198.63 -21.39 198.57 -21.45C198.51 -21.51 198.28 -21.54 197.88 -21.54C197.48 -21.54 197.11 -21.68 196.77 -21.96C196.43 -22.24 196.26 -22.74 196.26 -23.46C196.26 -23.7 196.86 -23.82 198.06 -23.82L199.56 -23.82C200.08 -23.82 200.36 -23.84 200.4 -23.88C201.28 -24.72 202.08 -25.85 202.8 -27.27C203.52 -28.69 203.88 -29.56 203.88 -29.88C203.88 -30.2 203.69 -30.64 203.31 -31.2C202.93 -31.76 202.66 -32.04 202.5 -32.04C201.22 -31.2 200.28 -30.78 199.68 -30.78C199.08 -30.78 198.64 -30.86 198.36 -31.02C198.12 -31.26 197.98 -32.2 197.94 -33.84L199.08 -42.18C199.08 -42.38 199.06 -42.5 199.02 -42.54C198.78 -42.78 197.24 -42.94 194.4 -43.02C193.64 -43.02 192.37 -42.44 190.59 -41.28C188.81 -40.12 187.92 -39.34 187.92 -38.94L188.22 -38.04C188.7 -36.28 188.94 -34.32 188.94 -32.16C188.94 -31.16 188.9 -30.62 188.82 -30.54C188.74 -30.46 188.58 -30.42 188.34 -30.42L187.14 -30.48C186.82 -30.48 186.6 -30.42 186.48 -30.3C186.36 -30.18 186 -29.22 185.4 -27.42C184.8 -25.62 184.5 -24.48 184.5 -24C184.5 -23.88 184.69 -23.64 185.07 -23.28C185.45 -22.92 185.72 -22.74 185.88 -22.74C186.04 -22.74 186.14 -22.76 186.18 -22.8C186.22 -22.84 186.29 -22.89 186.39 -22.95C186.49 -23.01 186.64 -23.07 186.84 -23.13C187.04 -23.19 187.33 -23.22 187.71 -23.22C188.09 -23.22 188.32 -23.18 188.4 -23.1C188.48 -23.02 188.52 -21.97 188.52 -19.95C188.52 -17.93 188.38 -16.36 188.1 -15.24C188.1 -15.16 188.22 -15.06 188.46 -14.94C188.7 -14.82 188.94 -14.68 189.18 -14.52C189.42 -14.36 189.54 -14.1 189.54 -13.74C189.54 -13.38 189.33 -13.04 188.91 -12.72C188.49 -12.4 188.28 -12.2 188.28 -12.12L188.28 -11.16C188.28 -5.92 188.04 -2.86 187.56 -1.98L187.56 -1.86C187.56 -1.5 187.91 -0.93 188.61 -0.15C189.31 0.63 189.83 1.02 190.17 1.02C190.51 1.02 191.12 1.25 192 1.71C192.88 2.17 193.38 2.4 193.5 2.4L194.64 2.28C196.84 1.96 198.38 1.58 199.26 1.14C199.7 0.9 200.28 0.46 201 -0.18C201.72 -0.82 202.08 -1.22 202.08 -1.38C202.08 -2.06 201.42 -2.84 200.1 -3.72C199.62 -4.2 199.28 -5.88 199.08 -8.76C199.08 -8.84 198.97 -8.88 198.75 -8.88C198.53 -8.88 198.06 -8.74 197.34 -8.46C197.02 -8.46 196.86 -8.74 196.86 -9.3L196.86 -9.66C196.86 -9.9 197.16 -10.26 197.76 -10.74C198.36 -11.22 198.66 -11.52 198.66 -11.64C198.54 -12.08 198.48 -12.96 198.48 -14.28Z M215.76 -30.3C215.76 -30.66 215.72 -30.88 215.64 -30.96C215.16 -31.44 214.02 -31.88 212.22 -32.28C211.9 -32.28 211.23 -32.18 210.21 -31.98C209.19 -31.78 208.62 -31.6 208.5 -31.44C208.38 -31.28 207.62 -30.52 206.22 -29.16C204.82 -27.8 204.12 -27.06 204.12 -26.94C204.12 -26.38 204.38 -25.64 204.9 -24.72C205.42 -23.8 205.68 -23 205.68 -22.32L204.84 -20.04C204.84 -19.84 204.99 -19.67 205.29 -19.53C205.59 -19.39 205.79 -19.2 205.89 -18.96C205.99 -18.72 206.28 -17.16 206.76 -14.28C207.24 -11.4 207.53 -9.91 207.63 -9.81C207.73 -9.71 208.1 -9.55 208.74 -9.33C209.38 -9.11 209.7 -8.76 209.7 -8.28C209.7 -8.08 209.49 -7.84 209.07 -7.56C208.65 -7.28 208.44 -7.08 208.44 -6.96C208.44 -6.84 208.72 -5.91 209.28 -4.17C209.84 -2.43 210.12 -1.34 210.12 -0.9C210.12 -0.78 210.38 -0.57 210.9 -0.27C211.42 0.03 212.31 0.33 213.57 0.63C214.83 0.93 216.24 1.08 217.8 1.08C217.92 1.08 218.16 0.89 218.52 0.51C218.88 0.13 219.14 -0.1 219.3 -0.18L220.02 -0.36C221.46 -0.8 222.18 -1.26 222.18 -1.74C222.18 -2.74 222.62 -4.72 223.5 -7.68C224.38 -10.64 224.96 -12.25 225.24 -12.51C225.52 -12.77 225.88 -12.9 226.32 -12.9L226.44 -12.9C226.6 -12.74 226.78 -11.64 226.98 -9.6C227.18 -7.56 227.34 -6.5 227.46 -6.42L228.54 -6.06L229.08 -4.92C229.08 -4.72 228.91 -4.52 228.57 -4.32C228.23 -4.12 228.06 -3.98 228.06 -3.9L228.42 -0.54C228.42 -0.46 229.32 -0.14 231.12 0.42C232.92 0.98 234.54 1.26 235.98 1.26L237 0.84C238.88 -0.04 240.08 -0.48 240.6 -0.48C240.84 -0.48 241.09 -0.75 241.35 -1.29C241.61 -1.83 241.89 -2.19 242.19 -2.37C242.49 -2.55 242.98 -2.93 243.66 -3.51C244.34 -4.09 244.68 -4.46 244.68 -4.62C244.68 -5.62 245.2 -8.62 246.24 -13.62C246.76 -15.98 247.17 -17.56 247.47 -18.36C247.77 -19.16 248.07 -19.73 248.37 -20.07C248.67 -20.41 248.82 -20.73 248.82 -21.03C248.82 -21.33 248.62 -21.67 248.22 -22.05C247.82 -22.43 247.62 -22.68 247.62 -22.8C247.62 -23.2 247.96 -23.6 248.64 -24C249.32 -24.4 249.66 -24.66 249.66 -24.78C249.66 -26.38 250.44 -28.82 252 -32.1C252 -32.22 251.7 -32.44 251.1 -32.76C250.5 -33.08 249.77 -33.38 248.91 -33.66C248.05 -33.94 247.28 -34.08 246.6 -34.08C245.92 -34.08 244.73 -33.7 243.03 -32.94C241.33 -32.18 240.48 -31.62 240.48 -31.26C240.48 -30.9 240.68 -29.22 241.08 -26.22C241.08 -25.9 240.97 -25.61 240.75 -25.35C240.53 -25.09 240.42 -24.94 240.42 -24.9C240.42 -23.3 240.02 -20.7 239.22 -17.1C239.22 -17.02 239.35 -16.83 239.61 -16.53C239.87 -16.23 240 -15.83 240 -15.33C240 -14.83 239.54 -14.5 238.62 -14.34C238.54 -14.34 238.39 -13.71 238.17 -12.45C237.95 -11.19 237.76 -10.56 237.6 -10.56C237.32 -10.56 236.8 -10.76 236.04 -11.16C235.6 -11.6 235.38 -13.58 235.38 -17.1C235.38 -17.18 235.24 -17.38 234.96 -17.7C234.68 -18.02 234.54 -18.38 234.54 -18.78C234.54 -19.18 234.92 -19.84 235.68 -20.76C235.68 -21.24 235.4 -21.7 234.84 -22.14C234.68 -22.3 234.52 -23.45 234.36 -25.59C234.2 -27.73 234.1 -28.84 234.06 -28.92C233.94 -29.2 233.08 -29.47 231.48 -29.73C229.88 -29.99 228.82 -30.12 228.3 -30.12C227.26 -30.12 225.1 -29.14 221.82 -27.18C221.62 -26.98 221.5 -26.06 221.46 -24.42C221.26 -23.9 221.12 -23.26 221.04 -22.5C221.04 -22.46 221.21 -22.36 221.55 -22.2C221.89 -22.04 222.06 -21.78 222.06 -21.42C222.06 -21.06 221.8 -20.74 221.28 -20.46C220.76 -20.18 220.5 -19.91 220.5 -19.65C220.5 -19.39 220.15 -18.03 219.45 -15.57C218.75 -13.11 218.28 -11.88 218.04 -11.88C217.8 -11.88 217.42 -12.06 216.9 -12.42C216.58 -12.78 216.22 -15.66 215.82 -21.06C215.82 -21.42 215.95 -21.75 216.21 -22.05C216.47 -22.35 216.6 -22.7 216.6 -23.1C216.6 -23.5 216.48 -23.76 216.24 -23.88C215.72 -24.2 215.46 -24.84 215.46 -25.8Z M252.84 -24.6L252.84 -24.54C252.56 -24.26 251.96 -22.96 251.04 -20.64C250.12 -18.32 249.66 -16.88 249.66 -16.32C249.66 -12.4 249.96 -9.32 250.56 -7.08C250.8 -6.04 251.02 -5.52 251.22 -5.52L253.32 -5.82C253.84 -5.46 254.1 -5.08 254.1 -4.68C254.1 -4.44 253.9 -4.07 253.5 -3.57C253.1 -3.07 252.9 -2.8 252.9 -2.76C252.9 -2.48 253.53 -1.8 254.79 -0.72C256.05 0.36 257.18 1.04 258.18 1.32L263.28 1.74C264.12 1.74 264.61 1.67 264.75 1.53C264.89 1.39 265.02 1.14 265.14 0.78C265.42 -0.02 265.86 -0.42 266.46 -0.42L267.12 -0.48C267.56 -0.48 267.88 -0.4 268.08 -0.24L268.14 -0.24C268.74 -0.24 269.96 -1.12 271.8 -2.88C273.72 -4.8 274.68 -6.1 274.68 -6.78C274.68 -7.46 274.84 -8.43 275.16 -9.69C275.48 -10.95 275.64 -11.76 275.64 -12.12C275.64 -12.16 275.44 -12.36 275.04 -12.72C274.64 -13.08 274.44 -13.45 274.44 -13.83C274.44 -14.21 274.96 -14.82 276 -15.66C276 -16.9 275.64 -18.2 274.92 -19.56C274.2 -20.92 273.84 -21.68 273.84 -21.84C273.84 -22 273.94 -22.62 274.14 -23.7C274.14 -24.14 272.44 -24.36 269.04 -24.36L268.2 -24.36C267.68 -24.36 266.79 -23.66 265.53 -22.26C264.27 -20.86 263.64 -19.9 263.64 -19.38C263.64 -19.3 263.8 -19.13 264.12 -18.87C264.44 -18.61 264.76 -18.24 265.08 -17.76C265.4 -17.28 265.56 -16.84 265.56 -16.44C265.56 -16.04 265.38 -15.67 265.02 -15.33C264.66 -14.99 264.48 -14.76 264.48 -14.64C264.48 -13.8 264.84 -13.04 265.56 -12.36C265.64 -11.8 265.68 -11.26 265.68 -10.74C265.68 -8.42 265.2 -6.78 264.24 -5.82C264.12 -5.7 263.87 -5.64 263.49 -5.64C263.11 -5.64 262.62 -5.8 262.02 -6.12C261.7 -6.44 261.38 -6.94 261.06 -7.62C260.74 -8.3 260.58 -8.77 260.58 -9.03C260.58 -9.29 260.8 -10.36 261.24 -12.24C261.24 -12.88 260.66 -13.46 259.5 -13.98C259.5 -17.74 259.67 -19.97 260.01 -20.67C260.35 -21.37 261.11 -22.37 262.29 -23.67C263.47 -24.97 264.26 -25.72 264.66 -25.92C265.5 -26.4 267.18 -26.7 269.7 -26.82C269.86 -26.82 270.04 -27.38 270.24 -28.5C270.24 -28.66 269.96 -29.09 269.4 -29.79C268.84 -30.49 268.46 -30.87 268.26 -30.93C268.06 -30.99 267.48 -31.24 266.52 -31.68C265.56 -32.12 265.02 -32.34 264.9 -32.34C263.82 -32.34 261.76 -32.02 258.72 -31.38C258.24 -31.18 257.07 -30.23 255.21 -28.53C253.35 -26.83 252.42 -25.84 252.42 -25.56Z M283.62 -34.02C282.66 -34.02 281.66 -33.68 280.62 -33C280.26 -32.72 279.83 -32.39 279.33 -32.01C278.83 -31.63 278.46 -31.36 278.22 -31.2C277.98 -31.04 277.68 -30.87 277.32 -30.69C276.96 -30.51 276.72 -30.38 276.6 -30.3C276.48 -30.22 276.42 -29.94 276.42 -29.46C276.42 -28.98 276.68 -27.84 277.2 -26.04C277.72 -24.24 277.98 -23.08 277.98 -22.56C277.98 -22.04 277.84 -21.65 277.56 -21.39C277.28 -21.13 277.14 -20.98 277.14 -20.94L278.04 -16.92L277.98 -14.94C277.78 -10.78 277.58 -8.28 277.38 -7.44C278.46 -6.84 279 -6.29 279 -5.79C279 -5.29 278.78 -4.9 278.34 -4.62L277.68 -4.2C277.68 -3.08 277.55 -1.86 277.29 -0.54C277.03 0.78 276.9 1.48 276.9 1.56C276.9 1.88 277.74 2.11 279.42 2.25C281.1 2.39 282.29 2.46 282.99 2.46C283.69 2.46 284.99 1.96 286.89 0.96C288.79 -0.04 289.74 -0.72 289.74 -1.08C289.74 -1.32 289.55 -1.86 289.17 -2.7C288.79 -3.54 288.6 -4.08 288.6 -4.32C288.6 -4.56 288.74 -5.02 289.02 -5.7C288.9 -5.98 288.84 -6.89 288.84 -8.43C288.84 -9.97 288.94 -12.1 289.14 -14.82C289.14 -15.06 288.98 -15.18 288.66 -15.18C288.34 -15.18 288.02 -15.12 287.7 -15C287.3 -15 287.08 -15.52 287.04 -16.56C287.04 -17.16 287.88 -18.22 289.56 -19.74C291.24 -21.26 292.54 -22.02 293.46 -22.02C294.38 -22.02 295.56 -21.54 297 -20.58L297.12 -20.58C297.4 -20.58 297.88 -20.68 298.56 -20.88C298.8 -21.08 299.02 -22.56 299.22 -25.32C299.22 -26.96 298.96 -28.58 298.44 -30.18C297.08 -31.58 295.4 -32.34 293.4 -32.46C292.56 -32.46 290.72 -30.36 287.88 -26.16C287.36 -26.16 287.04 -26.52 286.92 -27.24C286.92 -29.16 287.12 -30.84 287.52 -32.28C287.52 -32.6 287.18 -33.18 286.5 -34.02C286.14 -33.9 285.78 -33.84 285.42 -33.84Z M323.7 -10.26C323.34 -10.26 323.16 -10.4 323.16 -10.68C323.16 -11.32 323.26 -11.78 323.46 -12.06C324.06 -12.62 324.36 -13.24 324.36 -13.92L324.06 -17.04C324.06 -17.72 324.1 -18.26 324.18 -18.66L324.18 -18.72C324.18 -19.36 323.32 -20.03 321.6 -20.73C319.88 -21.43 319.02 -21.82 319.02 -21.9C319.02 -22.42 321.1 -24.56 325.26 -28.32C325.42 -28.48 326.14 -28.9 327.42 -29.58C327.62 -29.74 327.72 -30.6 327.72 -32.16C327.72 -32.36 326.36 -32.5 323.64 -32.58C323.24 -32.58 322.13 -32.3 320.31 -31.74C318.49 -31.18 317.58 -30.8 317.58 -30.6C317.58 -29.64 316.86 -28.17 315.42 -26.19C313.98 -24.21 313.04 -23.22 312.6 -23.22C312.32 -23.22 311.94 -23.54 311.46 -24.18C311.46 -29.34 311.64 -33.1 312 -35.46C312 -35.54 311.92 -35.6 311.76 -35.64C311.6 -35.68 311.38 -35.76 311.1 -35.88C310.82 -36 310.59 -36.15 310.41 -36.33C310.23 -36.51 310.14 -36.7 310.14 -36.9C310.14 -37.1 310.45 -37.46 311.07 -37.98C311.69 -38.5 312 -38.82 312 -38.94C312 -40.58 312.32 -43.08 312.96 -46.44C312.96 -47 311.14 -47.28 307.5 -47.28C307.02 -47.28 305.85 -46.76 303.99 -45.72C302.13 -44.68 301.2 -43.98 301.2 -43.62L301.2 -43.56C301.44 -42.6 301.59 -41.45 301.65 -40.11C301.71 -38.77 301.78 -37.76 301.86 -37.08C301.94 -36.4 302.14 -36.06 302.46 -36.06C302.94 -36.06 303.18 -35.86 303.18 -35.46L303.12 -35.1L303.12 -35.04C303.12 -34.8 302.66 -34.46 301.74 -34.02C301.7 -33.98 301.68 -33.78 301.68 -33.42L302.1 -23.88C302.1 -23.08 302.06 -22.64 301.98 -22.56L301.62 -22.14L301.38 -15.36C301.38 -14.4 301.42 -13.88 301.5 -13.8C302.9 -13.16 303.6 -12.56 303.6 -12C303.6 -11.72 303.32 -11.47 302.76 -11.25C302.2 -11.03 301.92 -10.86 301.92 -10.74L301.38 -2.88L300.24 0.3C300.24 0.62 301.28 0.88 303.36 1.08C304.12 1.16 304.66 1.24 304.98 1.32C305.3 1.4 305.94 1.44 306.9 1.44C307.86 1.44 308.72 1.16 309.48 0.6C310.24 0.04 311.08 -0.48 312 -0.96C312.28 -1.08 312.42 -1.2 312.42 -1.32L312.12 -4.56C312.12 -4.84 312.14 -5.02 312.18 -5.1C311.3 -5.82 310.86 -6.34 310.86 -6.66C310.86 -6.98 311.06 -7.32 311.46 -7.68C311.86 -8.04 312.06 -8.32 312.06 -8.52L311.94 -11.28C311.94 -13.52 312.2 -14.9 312.72 -15.42C313.72 -16.58 314.32 -17.16 314.52 -17.16C315.44 -17 315.9 -16.62 315.9 -16.02C315.9 -15.66 315.72 -15.22 315.36 -14.7C315 -14.18 314.82 -13.88 314.82 -13.8L314.88 -12C315.08 -8.32 315.36 -6.3 315.72 -5.94C316.92 -5.7 317.52 -5.46 317.52 -5.22C317.52 -4.7 317.28 -4.2 316.8 -3.72L316.14 -3.06L316.56 0.42C316.56 0.66 317.44 1.06 319.2 1.62C320.96 2.18 322.02 2.46 322.38 2.46C322.74 2.46 323.45 2.31 324.51 2.01C325.57 1.71 326.21 1.45 326.43 1.23C326.65 1.01 326.97 0.81 327.39 0.63C327.81 0.45 328.17 0.29 328.47 0.15C328.77 0.01 328.92 -0.18 328.92 -0.42C328.92 -0.66 328.3 -1.5 327.06 -2.94C326.9 -3.1 326.6 -4.37 326.16 -6.75C325.72 -9.13 325.46 -10.36 325.38 -10.44L325.2 -10.5Z M346.08 -26.88C345.8 -27.16 345.66 -27.98 345.66 -29.34C345.66 -29.46 345.47 -29.57 345.09 -29.67C344.71 -29.77 344.48 -29.82 344.4 -29.82L342.6 -29.76L342.18 -30C342.1 -30 341.76 -29.88 341.16 -29.64C340.56 -29.4 340.26 -29.24 340.26 -29.16C340.3 -28.88 340.32 -28.64 340.32 -28.44L340.32 -27.6C340.32 -27.24 340.28 -26.98 340.2 -26.82C340.56 -26.54 340.74 -26.32 340.74 -26.16C340.74 -26 340.58 -25.8 340.26 -25.56L340.26 -24.66C340.26 -22.94 340.28 -21.96 340.32 -21.72L339.9 -19.86C339.9 -19.82 340.04 -19.72 340.32 -19.56C340.32 -18.68 340.14 -17.66 339.78 -16.5C339.78 -16.38 340.02 -16.24 340.5 -16.08C340.98 -15.92 341.28 -15.84 341.4 -15.84L342.96 -16.44C343.04 -16.44 343.08 -16.52 343.08 -16.68L342.96 -17.4L343.02 -17.88L342.96 -18.06C342.72 -18.18 342.6 -18.26 342.6 -18.3L342.6 -18.42C342.6 -18.62 342.76 -18.82 343.08 -19.02L343.08 -19.14C343.08 -19.34 343.02 -19.64 342.9 -20.04L342.84 -22.68C342.84 -23.84 342.88 -24.44 342.96 -24.48L343.14 -24.6L343.2 -24.6L343.44 -23.76C343.84 -22 344.04 -20.74 344.04 -19.98C344.04 -19.9 344.16 -19.83 344.4 -19.77C344.64 -19.71 344.76 -19.62 344.76 -19.5C344.76 -19.26 344.58 -19.1 344.22 -19.02L344.4 -18.12C344.4 -18.04 344.69 -17.91 345.27 -17.73C345.85 -17.55 346.32 -17.46 346.68 -17.46C347.04 -17.46 347.48 -17.84 348 -18.6C348.2 -18.88 348.3 -19.04 348.3 -19.08L347.94 -19.56L348.06 -19.86L348.54 -20.34L348.36 -20.94C348.36 -21.06 348.51 -21.72 348.81 -22.92C349.11 -24.12 349.28 -24.74 349.32 -24.78L349.62 -24.9C349.74 -24.9 349.8 -23.96 349.8 -22.08L349.62 -21.36C349.86 -21.28 349.98 -21.15 349.98 -20.97C349.98 -20.79 349.84 -20.54 349.56 -20.22L349.62 -17.94L349.32 -16.38C349.32 -16.3 349.57 -16.16 350.07 -15.96C350.57 -15.76 350.92 -15.66 351.12 -15.66C351.32 -15.66 351.8 -15.76 352.56 -15.96C353.32 -16.16 353.7 -16.36 353.7 -16.56L353.16 -18.18C352.84 -18.26 352.68 -18.36 352.68 -18.48L353.16 -19.2L353.16 -19.38C353.16 -19.58 353.12 -19.8 353.04 -20.04L353.04 -21.18C353.04 -22.94 353.1 -24.04 353.22 -24.48C353.22 -24.56 353.04 -24.74 352.68 -25.02C352.68 -25.26 352.88 -25.52 353.28 -25.8L353.28 -26.16C353.28 -27.4 353.22 -28.02 353.1 -28.02L353.1 -28.08C353.1 -28.32 353.2 -28.88 353.4 -29.76C353.4 -29.96 352.98 -30.07 352.14 -30.09C351.3 -30.11 350.46 -30.02 349.62 -29.82C348.78 -29.62 348.32 -29.48 348.24 -29.4C348.16 -29.32 348.05 -29.06 347.91 -28.62C347.77 -28.18 347.7 -27.94 347.7 -27.9C347.7 -27.86 347.76 -27.78 347.88 -27.66C348 -27.54 348.06 -27.41 348.06 -27.27C348.06 -27.13 347.88 -26.96 347.52 -26.76C347.44 -26.64 347.34 -25.92 347.22 -24.6C347.1 -24.48 346.98 -24.18 346.86 -23.7C346.82 -23.54 346.78 -23.46 346.74 -23.46C346.54 -23.46 346.42 -23.52 346.38 -23.64C346.34 -23.76 346.26 -24.42 346.14 -25.62C346.14 -25.66 346.05 -25.71 345.87 -25.77C345.69 -25.83 345.6 -25.92 345.6 -26.04C345.6 -26.16 345.76 -26.44 346.08 -26.88ZM335.94 -23.82C335.94 -23.9 336.08 -24.06 336.36 -24.3C336.36 -25.06 336.4 -25.82 336.48 -26.58C336.48 -26.66 336.2 -26.84 335.64 -27.12C335.64 -27.36 335.8 -27.49 336.12 -27.51C336.44 -27.53 336.82 -27.46 337.26 -27.3C337.62 -26.94 337.92 -26.34 338.16 -25.5C338.4 -25.5 338.7 -25.62 339.06 -25.86C339.42 -26.1 339.6 -26.33 339.6 -26.55C339.6 -26.77 339.52 -27.32 339.36 -28.2C339.2 -29.08 339.06 -29.58 338.94 -29.7L338.76 -29.7L336.6 -29.58C336.32 -29.58 336.13 -29.62 336.03 -29.7C335.93 -29.78 335.82 -29.84 335.7 -29.88C335.58 -29.92 335.28 -29.84 334.8 -29.64L334.02 -29.76C333.82 -29.76 332.96 -29.68 331.44 -29.52C331.28 -29.6 330.92 -29.66 330.36 -29.7C330.32 -29.66 330.17 -29.08 329.91 -27.96C329.65 -26.84 329.52 -26.25 329.52 -26.19C329.52 -26.13 329.66 -25.96 329.94 -25.68C330.22 -25.4 330.6 -25.26 331.08 -25.26C331.56 -26.78 332.16 -27.54 332.88 -27.54L332.88 -26.76C332.88 -25.68 332.86 -25.1 332.82 -25.02L332.52 -24.36C332.52 -24.24 332.59 -24.11 332.73 -23.97C332.87 -23.83 332.94 -23.74 332.94 -23.7C332.94 -23.66 332.92 -23.62 332.88 -23.58C332.84 -23.54 332.82 -23.4 332.82 -23.16L332.88 -21.54C332.88 -21.34 332.78 -21.04 332.58 -20.64L332.58 -20.58L333.18 -19.8C333.02 -19.48 332.88 -19.32 332.76 -19.32L332.76 -17.64C332.76 -17.32 332.74 -17.14 332.7 -17.1L332.4 -16.02C332.8 -15.78 333.66 -15.66 334.98 -15.66L335.7 -16.08C336.5 -16.28 336.9 -16.48 336.9 -16.68C336.9 -17 336.76 -17.5 336.48 -18.18C336.44 -18.38 336.42 -18.94 336.42 -19.86C336.42 -20.78 336.44 -21.88 336.48 -23.16C336.12 -23.32 335.94 -23.54 335.94 -23.82Z"></path></g></g></g></svg>